<?xml version="1.0" encoding="utf-8" standalone="no"?>
<!DOCTYPE svg PUBLIC "-//W3C//DTD SVG 1.1//EN"
  "http://www.w3.org/Graphics/SVG/1.1/DTD/svg11.dtd">
<svg height="345.6pt" version="1.1" viewBox="0 0 460.8 345.6" width="460.8pt" xmlns="http://www.w3.org/2000/svg" xmlns:xlink="http://www.w3.org/1999/xlink">
 <metadata>
  <rdf:RDF xmlns:cc="http://creativecommons.org/ns#" xmlns:dc="http://purl.org/dc/elements/1.1/" xmlns:rdf="http://www.w3.org/1999/02/22-rdf-syntax-ns#">
   <cc:Work>
    <dc:type rdf:resource="http://purl.org/dc/dcmitype/StillImage"/>
    <dc:date>2022-10-17T23:46:08.270153</dc:date>
    <dc:format>image/svg+xml</dc:format>
    <dc:creator>
     <cc:Agent>
      <dc:title>Matplotlib v3.4.3, https://matplotlib.org/</dc:title>
     </cc:Agent>
    </dc:creator>
   </cc:Work>
  </rdf:RDF>
 </metadata>
 <defs>
  <style type="text/css">*{stroke-linecap:butt;stroke-linejoin:round;}</style>
 </defs>
 <g id="figure_1">
  <g id="patch_1">
   <path d="M 0 345.6 
L 460.8 345.6 
L 460.8 0 
L 0 0 
z
" style="fill:#ffffff;"/>
  </g>
  <g id="axes_1">
   <g id="patch_2">
    <path d="M 57.6 307.584 
L 414.72 307.584 
L 414.72 41.472 
L 57.6 41.472 
z
" style="fill:#ffffff;"/>
   </g>
   <g id="patch_3">
    <path clip-path="url(#pf9f30207ed)" d="M 73.832727 307.584 
L 80.325818 307.584 
L 80.325818 259.309714 
L 73.832727 259.309714 
z
" style="fill:#0000ff;opacity:0.8;"/>
   </g>
   <g id="patch_4">
    <path clip-path="url(#pf9f30207ed)" d="M 80.325818 307.584 
L 86.818909 307.584 
L 86.818909 307.584 
L 80.325818 307.584 
z
" style="fill:#0000ff;opacity:0.8;"/>
   </g>
   <g id="patch_5">
    <path clip-path="url(#pf9f30207ed)" d="M 86.818909 307.584 
L 93.312 307.584 
L 93.312 307.584 
L 86.818909 307.584 
z
" style="fill:#0000ff;opacity:0.8;"/>
   </g>
   <g id="patch_6">
    <path clip-path="url(#pf9f30207ed)" d="M 93.312 307.584 
L 99.805091 307.584 
L 99.805091 307.584 
L 93.312 307.584 
z
" style="fill:#0000ff;opacity:0.8;"/>
   </g>
   <g id="patch_7">
    <path clip-path="url(#pf9f30207ed)" d="M 99.805091 307.584 
L 106.298182 307.584 
L 106.298182 307.584 
L 99.805091 307.584 
z
" style="fill:#0000ff;opacity:0.8;"/>
   </g>
   <g id="patch_8">
    <path clip-path="url(#pf9f30207ed)" d="M 106.298182 307.584 
L 112.791273 307.584 
L 112.791273 307.584 
L 106.298182 307.584 
z
" style="fill:#0000ff;opacity:0.8;"/>
   </g>
   <g id="patch_9">
    <path clip-path="url(#pf9f30207ed)" d="M 112.791273 307.584 
L 119.284364 307.584 
L 119.284364 307.584 
L 112.791273 307.584 
z
" style="fill:#0000ff;opacity:0.8;"/>
   </g>
   <g id="patch_10">
    <path clip-path="url(#pf9f30207ed)" d="M 119.284364 307.584 
L 125.777455 307.584 
L 125.777455 307.584 
L 119.284364 307.584 
z
" style="fill:#0000ff;opacity:0.8;"/>
   </g>
   <g id="patch_11">
    <path clip-path="url(#pf9f30207ed)" d="M 125.777455 307.584 
L 132.270545 307.584 
L 132.270545 307.584 
L 125.777455 307.584 
z
" style="fill:#0000ff;opacity:0.8;"/>
   </g>
   <g id="patch_12">
    <path clip-path="url(#pf9f30207ed)" d="M 132.270545 307.584 
L 138.763636 307.584 
L 138.763636 307.584 
L 132.270545 307.584 
z
" style="fill:#0000ff;opacity:0.8;"/>
   </g>
   <g id="patch_13">
    <path clip-path="url(#pf9f30207ed)" d="M 138.763636 307.584 
L 145.256727 307.584 
L 145.256727 307.584 
L 138.763636 307.584 
z
" style="fill:#0000ff;opacity:0.8;"/>
   </g>
   <g id="patch_14">
    <path clip-path="url(#pf9f30207ed)" d="M 145.256727 307.584 
L 151.749818 307.584 
L 151.749818 307.584 
L 145.256727 307.584 
z
" style="fill:#0000ff;opacity:0.8;"/>
   </g>
   <g id="patch_15">
    <path clip-path="url(#pf9f30207ed)" d="M 151.749818 307.584 
L 158.242909 307.584 
L 158.242909 307.584 
L 151.749818 307.584 
z
" style="fill:#0000ff;opacity:0.8;"/>
   </g>
   <g id="patch_16">
    <path clip-path="url(#pf9f30207ed)" d="M 158.242909 307.584 
L 164.736 307.584 
L 164.736 307.584 
L 158.242909 307.584 
z
" style="fill:#0000ff;opacity:0.8;"/>
   </g>
   <g id="patch_17">
    <path clip-path="url(#pf9f30207ed)" d="M 164.736 307.584 
L 171.229091 307.584 
L 171.229091 301.549714 
L 164.736 301.549714 
z
" style="fill:#0000ff;opacity:0.8;"/>
   </g>
   <g id="patch_18">
    <path clip-path="url(#pf9f30207ed)" d="M 171.229091 307.584 
L 177.722182 307.584 
L 177.722182 304.566857 
L 171.229091 304.566857 
z
" style="fill:#0000ff;opacity:0.8;"/>
   </g>
   <g id="patch_19">
    <path clip-path="url(#pf9f30207ed)" d="M 177.722182 307.584 
L 184.215273 307.584 
L 184.215273 289.481143 
L 177.722182 289.481143 
z
" style="fill:#0000ff;opacity:0.8;"/>
   </g>
   <g id="patch_20">
    <path clip-path="url(#pf9f30207ed)" d="M 184.215273 307.584 
L 190.708364 307.584 
L 190.708364 289.481143 
L 184.215273 289.481143 
z
" style="fill:#0000ff;opacity:0.8;"/>
   </g>
   <g id="patch_21">
    <path clip-path="url(#pf9f30207ed)" d="M 190.708364 307.584 
L 197.201455 307.584 
L 197.201455 295.515429 
L 190.708364 295.515429 
z
" style="fill:#0000ff;opacity:0.8;"/>
   </g>
   <g id="patch_22">
    <path clip-path="url(#pf9f30207ed)" d="M 197.201455 307.584 
L 203.694545 307.584 
L 203.694545 253.275429 
L 197.201455 253.275429 
z
" style="fill:#0000ff;opacity:0.8;"/>
   </g>
   <g id="patch_23">
    <path clip-path="url(#pf9f30207ed)" d="M 203.694545 307.584 
L 210.187636 307.584 
L 210.187636 256.292571 
L 203.694545 256.292571 
z
" style="fill:#0000ff;opacity:0.8;"/>
   </g>
   <g id="patch_24">
    <path clip-path="url(#pf9f30207ed)" d="M 210.187636 307.584 
L 216.680727 307.584 
L 216.680727 241.206857 
L 210.187636 241.206857 
z
" style="fill:#0000ff;opacity:0.8;"/>
   </g>
   <g id="patch_25">
    <path clip-path="url(#pf9f30207ed)" d="M 216.680727 307.584 
L 223.173818 307.584 
L 223.173818 201.984 
L 216.680727 201.984 
z
" style="fill:#0000ff;opacity:0.8;"/>
   </g>
   <g id="patch_26">
    <path clip-path="url(#pf9f30207ed)" d="M 223.173818 307.584 
L 229.666909 307.584 
L 229.666909 223.104 
L 223.173818 223.104 
z
" style="fill:#0000ff;opacity:0.8;"/>
   </g>
   <g id="patch_27">
    <path clip-path="url(#pf9f30207ed)" d="M 229.666909 307.584 
L 236.16 307.584 
L 236.16 220.086857 
L 229.666909 220.086857 
z
" style="fill:#0000ff;opacity:0.8;"/>
   </g>
   <g id="patch_28">
    <path clip-path="url(#pf9f30207ed)" d="M 236.16 307.584 
L 242.653091 307.584 
L 242.653091 150.692571 
L 236.16 150.692571 
z
" style="fill:#0000ff;opacity:0.8;"/>
   </g>
   <g id="patch_29">
    <path clip-path="url(#pf9f30207ed)" d="M 242.653091 307.584 
L 249.146182 307.584 
L 249.146182 147.675429 
L 242.653091 147.675429 
z
" style="fill:#0000ff;opacity:0.8;"/>
   </g>
   <g id="patch_30">
    <path clip-path="url(#pf9f30207ed)" d="M 249.146182 307.584 
L 255.639273 307.584 
L 255.639273 162.761143 
L 249.146182 162.761143 
z
" style="fill:#0000ff;opacity:0.8;"/>
   </g>
   <g id="patch_31">
    <path clip-path="url(#pf9f30207ed)" d="M 255.639273 307.584 
L 262.132364 307.584 
L 262.132364 117.504 
L 255.639273 117.504 
z
" style="fill:#0000ff;opacity:0.8;"/>
   </g>
   <g id="patch_32">
    <path clip-path="url(#pf9f30207ed)" d="M 262.132364 307.584 
L 268.625455 307.584 
L 268.625455 159.744 
L 262.132364 159.744 
z
" style="fill:#0000ff;opacity:0.8;"/>
   </g>
   <g id="patch_33">
    <path clip-path="url(#pf9f30207ed)" d="M 268.625455 307.584 
L 275.118545 307.584 
L 275.118545 138.624 
L 268.625455 138.624 
z
" style="fill:#0000ff;opacity:0.8;"/>
   </g>
   <g id="patch_34">
    <path clip-path="url(#pf9f30207ed)" d="M 275.118545 307.584 
L 281.611636 307.584 
L 281.611636 159.744 
L 275.118545 159.744 
z
" style="fill:#0000ff;opacity:0.8;"/>
   </g>
   <g id="patch_35">
    <path clip-path="url(#pf9f30207ed)" d="M 281.611636 307.584 
L 288.104727 307.584 
L 288.104727 150.692571 
L 281.611636 150.692571 
z
" style="fill:#0000ff;opacity:0.8;"/>
   </g>
   <g id="patch_36">
    <path clip-path="url(#pf9f30207ed)" d="M 288.104727 307.584 
L 294.597818 307.584 
L 294.597818 156.726857 
L 288.104727 156.726857 
z
" style="fill:#0000ff;opacity:0.8;"/>
   </g>
   <g id="patch_37">
    <path clip-path="url(#pf9f30207ed)" d="M 294.597818 307.584 
L 301.090909 307.584 
L 301.090909 54.144 
L 294.597818 54.144 
z
" style="fill:#0000ff;opacity:0.8;"/>
   </g>
   <g id="patch_38">
    <path clip-path="url(#pf9f30207ed)" d="M 301.090909 307.584 
L 307.584 307.584 
L 307.584 111.469714 
L 301.090909 111.469714 
z
" style="fill:#0000ff;opacity:0.8;"/>
   </g>
   <g id="patch_39">
    <path clip-path="url(#pf9f30207ed)" d="M 307.584 307.584 
L 314.077091 307.584 
L 314.077091 153.709714 
L 307.584 153.709714 
z
" style="fill:#0000ff;opacity:0.8;"/>
   </g>
   <g id="patch_40">
    <path clip-path="url(#pf9f30207ed)" d="M 314.077091 307.584 
L 320.570182 307.584 
L 320.570182 180.864 
L 314.077091 180.864 
z
" style="fill:#0000ff;opacity:0.8;"/>
   </g>
   <g id="patch_41">
    <path clip-path="url(#pf9f30207ed)" d="M 320.570182 307.584 
L 327.063273 307.584 
L 327.063273 201.984 
L 320.570182 201.984 
z
" style="fill:#0000ff;opacity:0.8;"/>
   </g>
   <g id="patch_42">
    <path clip-path="url(#pf9f30207ed)" d="M 327.063273 307.584 
L 333.556364 307.584 
L 333.556364 174.829714 
L 327.063273 174.829714 
z
" style="fill:#0000ff;opacity:0.8;"/>
   </g>
   <g id="patch_43">
    <path clip-path="url(#pf9f30207ed)" d="M 333.556364 307.584 
L 340.049455 307.584 
L 340.049455 223.104 
L 333.556364 223.104 
z
" style="fill:#0000ff;opacity:0.8;"/>
   </g>
   <g id="patch_44">
    <path clip-path="url(#pf9f30207ed)" d="M 340.049455 307.584 
L 346.542545 307.584 
L 346.542545 208.018286 
L 340.049455 208.018286 
z
" style="fill:#0000ff;opacity:0.8;"/>
   </g>
   <g id="patch_45">
    <path clip-path="url(#pf9f30207ed)" d="M 346.542545 307.584 
L 353.035636 307.584 
L 353.035636 232.155429 
L 346.542545 232.155429 
z
" style="fill:#0000ff;opacity:0.8;"/>
   </g>
   <g id="patch_46">
    <path clip-path="url(#pf9f30207ed)" d="M 353.035636 307.584 
L 359.528727 307.584 
L 359.528727 223.104 
L 353.035636 223.104 
z
" style="fill:#0000ff;opacity:0.8;"/>
   </g>
   <g id="patch_47">
    <path clip-path="url(#pf9f30207ed)" d="M 359.528727 307.584 
L 366.021818 307.584 
L 366.021818 201.984 
L 359.528727 201.984 
z
" style="fill:#0000ff;opacity:0.8;"/>
   </g>
   <g id="patch_48">
    <path clip-path="url(#pf9f30207ed)" d="M 366.021818 307.584 
L 372.514909 307.584 
L 372.514909 268.361143 
L 366.021818 268.361143 
z
" style="fill:#0000ff;opacity:0.8;"/>
   </g>
   <g id="patch_49">
    <path clip-path="url(#pf9f30207ed)" d="M 372.514909 307.584 
L 379.008 307.584 
L 379.008 268.361143 
L 372.514909 268.361143 
z
" style="fill:#0000ff;opacity:0.8;"/>
   </g>
   <g id="patch_50">
    <path clip-path="url(#pf9f30207ed)" d="M 379.008 307.584 
L 385.501091 307.584 
L 385.501091 274.395429 
L 379.008 274.395429 
z
" style="fill:#0000ff;opacity:0.8;"/>
   </g>
   <g id="patch_51">
    <path clip-path="url(#pf9f30207ed)" d="M 385.501091 307.584 
L 391.994182 307.584 
L 391.994182 292.498286 
L 385.501091 292.498286 
z
" style="fill:#0000ff;opacity:0.8;"/>
   </g>
   <g id="patch_52">
    <path clip-path="url(#pf9f30207ed)" d="M 391.994182 307.584 
L 398.487273 307.584 
L 398.487273 256.292571 
L 391.994182 256.292571 
z
" style="fill:#0000ff;opacity:0.8;"/>
   </g>
   <g id="matplotlib.axis_1">
    <g id="xtick_1">
     <g id="line2d_1">
      <defs>
       <path d="M 0 0 
L 0 3.5 
" id="maa2957eb8e" style="stroke:#000000;stroke-width:0.8;"/>
      </defs>
      <g>
       <use style="stroke:#000000;stroke-width:0.8;" x="73.832727" xlink:href="#maa2957eb8e" y="307.584"/>
      </g>
     </g>
     <g id="text_1">
      <!-- 0 -->
      <g transform="translate(70.651477 322.182437)scale(0.1 -0.1)">
       <defs>
        <path d="M 2034 4250 
Q 1547 4250 1301 3770 
Q 1056 3291 1056 2328 
Q 1056 1369 1301 889 
Q 1547 409 2034 409 
Q 2525 409 2770 889 
Q 3016 1369 3016 2328 
Q 3016 3291 2770 3770 
Q 2525 4250 2034 4250 
z
M 2034 4750 
Q 2819 4750 3233 4129 
Q 3647 3509 3647 2328 
Q 3647 1150 3233 529 
Q 2819 -91 2034 -91 
Q 1250 -91 836 529 
Q 422 1150 422 2328 
Q 422 3509 836 4129 
Q 1250 4750 2034 4750 
z
" id="DejaVuSans-30" transform="scale(0.015625)"/>
       </defs>
       <use xlink:href="#DejaVuSans-30"/>
      </g>
     </g>
    </g>
    <g id="xtick_2">
     <g id="line2d_2">
      <g>
       <use style="stroke:#000000;stroke-width:0.8;" x="145.929898" xlink:href="#maa2957eb8e" y="307.584"/>
      </g>
     </g>
     <g id="text_2">
      <!-- 20 -->
      <g transform="translate(139.567398 322.182437)scale(0.1 -0.1)">
       <defs>
        <path d="M 1228 531 
L 3431 531 
L 3431 0 
L 469 0 
L 469 531 
Q 828 903 1448 1529 
Q 2069 2156 2228 2338 
Q 2531 2678 2651 2914 
Q 2772 3150 2772 3378 
Q 2772 3750 2511 3984 
Q 2250 4219 1831 4219 
Q 1534 4219 1204 4116 
Q 875 4013 500 3803 
L 500 4441 
Q 881 4594 1212 4672 
Q 1544 4750 1819 4750 
Q 2544 4750 2975 4387 
Q 3406 4025 3406 3419 
Q 3406 3131 3298 2873 
Q 3191 2616 2906 2266 
Q 2828 2175 2409 1742 
Q 1991 1309 1228 531 
z
" id="DejaVuSans-32" transform="scale(0.015625)"/>
       </defs>
       <use xlink:href="#DejaVuSans-32"/>
       <use x="63.623047" xlink:href="#DejaVuSans-30"/>
      </g>
     </g>
    </g>
    <g id="xtick_3">
     <g id="line2d_3">
      <g>
       <use style="stroke:#000000;stroke-width:0.8;" x="218.027068" xlink:href="#maa2957eb8e" y="307.584"/>
      </g>
     </g>
     <g id="text_3">
      <!-- 40 -->
      <g transform="translate(211.664568 322.182437)scale(0.1 -0.1)">
       <defs>
        <path d="M 2419 4116 
L 825 1625 
L 2419 1625 
L 2419 4116 
z
M 2253 4666 
L 3047 4666 
L 3047 1625 
L 3713 1625 
L 3713 1100 
L 3047 1100 
L 3047 0 
L 2419 0 
L 2419 1100 
L 313 1100 
L 313 1709 
L 2253 4666 
z
" id="DejaVuSans-34" transform="scale(0.015625)"/>
       </defs>
       <use xlink:href="#DejaVuSans-34"/>
       <use x="63.623047" xlink:href="#DejaVuSans-30"/>
      </g>
     </g>
    </g>
    <g id="xtick_4">
     <g id="line2d_4">
      <g>
       <use style="stroke:#000000;stroke-width:0.8;" x="290.124238" xlink:href="#maa2957eb8e" y="307.584"/>
      </g>
     </g>
     <g id="text_4">
      <!-- 60 -->
      <g transform="translate(283.761738 322.182437)scale(0.1 -0.1)">
       <defs>
        <path d="M 2113 2584 
Q 1688 2584 1439 2293 
Q 1191 2003 1191 1497 
Q 1191 994 1439 701 
Q 1688 409 2113 409 
Q 2538 409 2786 701 
Q 3034 994 3034 1497 
Q 3034 2003 2786 2293 
Q 2538 2584 2113 2584 
z
M 3366 4563 
L 3366 3988 
Q 3128 4100 2886 4159 
Q 2644 4219 2406 4219 
Q 1781 4219 1451 3797 
Q 1122 3375 1075 2522 
Q 1259 2794 1537 2939 
Q 1816 3084 2150 3084 
Q 2853 3084 3261 2657 
Q 3669 2231 3669 1497 
Q 3669 778 3244 343 
Q 2819 -91 2113 -91 
Q 1303 -91 875 529 
Q 447 1150 447 2328 
Q 447 3434 972 4092 
Q 1497 4750 2381 4750 
Q 2619 4750 2861 4703 
Q 3103 4656 3366 4563 
z
" id="DejaVuSans-36" transform="scale(0.015625)"/>
       </defs>
       <use xlink:href="#DejaVuSans-36"/>
       <use x="63.623047" xlink:href="#DejaVuSans-30"/>
      </g>
     </g>
    </g>
    <g id="xtick_5">
     <g id="line2d_5">
      <g>
       <use style="stroke:#000000;stroke-width:0.8;" x="362.221408" xlink:href="#maa2957eb8e" y="307.584"/>
      </g>
     </g>
     <g id="text_5">
      <!-- 80 -->
      <g transform="translate(355.858908 322.182437)scale(0.1 -0.1)">
       <defs>
        <path d="M 2034 2216 
Q 1584 2216 1326 1975 
Q 1069 1734 1069 1313 
Q 1069 891 1326 650 
Q 1584 409 2034 409 
Q 2484 409 2743 651 
Q 3003 894 3003 1313 
Q 3003 1734 2745 1975 
Q 2488 2216 2034 2216 
z
M 1403 2484 
Q 997 2584 770 2862 
Q 544 3141 544 3541 
Q 544 4100 942 4425 
Q 1341 4750 2034 4750 
Q 2731 4750 3128 4425 
Q 3525 4100 3525 3541 
Q 3525 3141 3298 2862 
Q 3072 2584 2669 2484 
Q 3125 2378 3379 2068 
Q 3634 1759 3634 1313 
Q 3634 634 3220 271 
Q 2806 -91 2034 -91 
Q 1263 -91 848 271 
Q 434 634 434 1313 
Q 434 1759 690 2068 
Q 947 2378 1403 2484 
z
M 1172 3481 
Q 1172 3119 1398 2916 
Q 1625 2713 2034 2713 
Q 2441 2713 2670 2916 
Q 2900 3119 2900 3481 
Q 2900 3844 2670 4047 
Q 2441 4250 2034 4250 
Q 1625 4250 1398 4047 
Q 1172 3844 1172 3481 
z
" id="DejaVuSans-38" transform="scale(0.015625)"/>
       </defs>
       <use xlink:href="#DejaVuSans-38"/>
       <use x="63.623047" xlink:href="#DejaVuSans-30"/>
      </g>
     </g>
    </g>
    <g id="text_6">
     <!-- Age -->
     <g transform="translate(226.488906 335.860562)scale(0.1 -0.1)">
      <defs>
       <path d="M 2188 4044 
L 1331 1722 
L 3047 1722 
L 2188 4044 
z
M 1831 4666 
L 2547 4666 
L 4325 0 
L 3669 0 
L 3244 1197 
L 1141 1197 
L 716 0 
L 50 0 
L 1831 4666 
z
" id="DejaVuSans-41" transform="scale(0.015625)"/>
       <path d="M 2906 1791 
Q 2906 2416 2648 2759 
Q 2391 3103 1925 3103 
Q 1463 3103 1205 2759 
Q 947 2416 947 1791 
Q 947 1169 1205 825 
Q 1463 481 1925 481 
Q 2391 481 2648 825 
Q 2906 1169 2906 1791 
z
M 3481 434 
Q 3481 -459 3084 -895 
Q 2688 -1331 1869 -1331 
Q 1566 -1331 1297 -1286 
Q 1028 -1241 775 -1147 
L 775 -588 
Q 1028 -725 1275 -790 
Q 1522 -856 1778 -856 
Q 2344 -856 2625 -561 
Q 2906 -266 2906 331 
L 2906 616 
Q 2728 306 2450 153 
Q 2172 0 1784 0 
Q 1141 0 747 490 
Q 353 981 353 1791 
Q 353 2603 747 3093 
Q 1141 3584 1784 3584 
Q 2172 3584 2450 3431 
Q 2728 3278 2906 2969 
L 2906 3500 
L 3481 3500 
L 3481 434 
z
" id="DejaVuSans-67" transform="scale(0.015625)"/>
       <path d="M 3597 1894 
L 3597 1613 
L 953 1613 
Q 991 1019 1311 708 
Q 1631 397 2203 397 
Q 2534 397 2845 478 
Q 3156 559 3463 722 
L 3463 178 
Q 3153 47 2828 -22 
Q 2503 -91 2169 -91 
Q 1331 -91 842 396 
Q 353 884 353 1716 
Q 353 2575 817 3079 
Q 1281 3584 2069 3584 
Q 2775 3584 3186 3129 
Q 3597 2675 3597 1894 
z
M 3022 2063 
Q 3016 2534 2758 2815 
Q 2500 3097 2075 3097 
Q 1594 3097 1305 2825 
Q 1016 2553 972 2059 
L 3022 2063 
z
" id="DejaVuSans-65" transform="scale(0.015625)"/>
      </defs>
      <use xlink:href="#DejaVuSans-41"/>
      <use x="68.408203" xlink:href="#DejaVuSans-67"/>
      <use x="131.884766" xlink:href="#DejaVuSans-65"/>
     </g>
    </g>
   </g>
   <g id="matplotlib.axis_2">
    <g id="ytick_1">
     <g id="line2d_6">
      <defs>
       <path d="M 0 0 
L -3.5 0 
" id="m27e6b403ec" style="stroke:#000000;stroke-width:0.8;"/>
      </defs>
      <g>
       <use style="stroke:#000000;stroke-width:0.8;" x="57.6" xlink:href="#m27e6b403ec" y="307.584"/>
      </g>
     </g>
     <g id="text_7">
      <!-- 0 -->
      <g transform="translate(44.2375 311.383219)scale(0.1 -0.1)">
       <use xlink:href="#DejaVuSans-30"/>
      </g>
     </g>
    </g>
    <g id="ytick_2">
     <g id="line2d_7">
      <g>
       <use style="stroke:#000000;stroke-width:0.8;" x="57.6" xlink:href="#m27e6b403ec" y="277.412571"/>
      </g>
     </g>
     <g id="text_8">
      <!-- 10 -->
      <g transform="translate(37.875 281.21179)scale(0.1 -0.1)">
       <defs>
        <path d="M 794 531 
L 1825 531 
L 1825 4091 
L 703 3866 
L 703 4441 
L 1819 4666 
L 2450 4666 
L 2450 531 
L 3481 531 
L 3481 0 
L 794 0 
L 794 531 
z
" id="DejaVuSans-31" transform="scale(0.015625)"/>
       </defs>
       <use xlink:href="#DejaVuSans-31"/>
       <use x="63.623047" xlink:href="#DejaVuSans-30"/>
      </g>
     </g>
    </g>
    <g id="ytick_3">
     <g id="line2d_8">
      <g>
       <use style="stroke:#000000;stroke-width:0.8;" x="57.6" xlink:href="#m27e6b403ec" y="247.241143"/>
      </g>
     </g>
     <g id="text_9">
      <!-- 20 -->
      <g transform="translate(37.875 251.040362)scale(0.1 -0.1)">
       <use xlink:href="#DejaVuSans-32"/>
       <use x="63.623047" xlink:href="#DejaVuSans-30"/>
      </g>
     </g>
    </g>
    <g id="ytick_4">
     <g id="line2d_9">
      <g>
       <use style="stroke:#000000;stroke-width:0.8;" x="57.6" xlink:href="#m27e6b403ec" y="217.069714"/>
      </g>
     </g>
     <g id="text_10">
      <!-- 30 -->
      <g transform="translate(37.875 220.868933)scale(0.1 -0.1)">
       <defs>
        <path d="M 2597 2516 
Q 3050 2419 3304 2112 
Q 3559 1806 3559 1356 
Q 3559 666 3084 287 
Q 2609 -91 1734 -91 
Q 1441 -91 1130 -33 
Q 819 25 488 141 
L 488 750 
Q 750 597 1062 519 
Q 1375 441 1716 441 
Q 2309 441 2620 675 
Q 2931 909 2931 1356 
Q 2931 1769 2642 2001 
Q 2353 2234 1838 2234 
L 1294 2234 
L 1294 2753 
L 1863 2753 
Q 2328 2753 2575 2939 
Q 2822 3125 2822 3475 
Q 2822 3834 2567 4026 
Q 2313 4219 1838 4219 
Q 1578 4219 1281 4162 
Q 984 4106 628 3988 
L 628 4550 
Q 988 4650 1302 4700 
Q 1616 4750 1894 4750 
Q 2613 4750 3031 4423 
Q 3450 4097 3450 3541 
Q 3450 3153 3228 2886 
Q 3006 2619 2597 2516 
z
" id="DejaVuSans-33" transform="scale(0.015625)"/>
       </defs>
       <use xlink:href="#DejaVuSans-33"/>
       <use x="63.623047" xlink:href="#DejaVuSans-30"/>
      </g>
     </g>
    </g>
    <g id="ytick_5">
     <g id="line2d_10">
      <g>
       <use style="stroke:#000000;stroke-width:0.8;" x="57.6" xlink:href="#m27e6b403ec" y="186.898286"/>
      </g>
     </g>
     <g id="text_11">
      <!-- 40 -->
      <g transform="translate(37.875 190.697504)scale(0.1 -0.1)">
       <use xlink:href="#DejaVuSans-34"/>
       <use x="63.623047" xlink:href="#DejaVuSans-30"/>
      </g>
     </g>
    </g>
    <g id="ytick_6">
     <g id="line2d_11">
      <g>
       <use style="stroke:#000000;stroke-width:0.8;" x="57.6" xlink:href="#m27e6b403ec" y="156.726857"/>
      </g>
     </g>
     <g id="text_12">
      <!-- 50 -->
      <g transform="translate(37.875 160.526076)scale(0.1 -0.1)">
       <defs>
        <path d="M 691 4666 
L 3169 4666 
L 3169 4134 
L 1269 4134 
L 1269 2991 
Q 1406 3038 1543 3061 
Q 1681 3084 1819 3084 
Q 2600 3084 3056 2656 
Q 3513 2228 3513 1497 
Q 3513 744 3044 326 
Q 2575 -91 1722 -91 
Q 1428 -91 1123 -41 
Q 819 9 494 109 
L 494 744 
Q 775 591 1075 516 
Q 1375 441 1709 441 
Q 2250 441 2565 725 
Q 2881 1009 2881 1497 
Q 2881 1984 2565 2268 
Q 2250 2553 1709 2553 
Q 1456 2553 1204 2497 
Q 953 2441 691 2322 
L 691 4666 
z
" id="DejaVuSans-35" transform="scale(0.015625)"/>
       </defs>
       <use xlink:href="#DejaVuSans-35"/>
       <use x="63.623047" xlink:href="#DejaVuSans-30"/>
      </g>
     </g>
    </g>
    <g id="ytick_7">
     <g id="line2d_12">
      <g>
       <use style="stroke:#000000;stroke-width:0.8;" x="57.6" xlink:href="#m27e6b403ec" y="126.555429"/>
      </g>
     </g>
     <g id="text_13">
      <!-- 60 -->
      <g transform="translate(37.875 130.354647)scale(0.1 -0.1)">
       <use xlink:href="#DejaVuSans-36"/>
       <use x="63.623047" xlink:href="#DejaVuSans-30"/>
      </g>
     </g>
    </g>
    <g id="ytick_8">
     <g id="line2d_13">
      <g>
       <use style="stroke:#000000;stroke-width:0.8;" x="57.6" xlink:href="#m27e6b403ec" y="96.384"/>
      </g>
     </g>
     <g id="text_14">
      <!-- 70 -->
      <g transform="translate(37.875 100.183219)scale(0.1 -0.1)">
       <defs>
        <path d="M 525 4666 
L 3525 4666 
L 3525 4397 
L 1831 0 
L 1172 0 
L 2766 4134 
L 525 4134 
L 525 4666 
z
" id="DejaVuSans-37" transform="scale(0.015625)"/>
       </defs>
       <use xlink:href="#DejaVuSans-37"/>
       <use x="63.623047" xlink:href="#DejaVuSans-30"/>
      </g>
     </g>
    </g>
    <g id="ytick_9">
     <g id="line2d_14">
      <g>
       <use style="stroke:#000000;stroke-width:0.8;" x="57.6" xlink:href="#m27e6b403ec" y="66.212571"/>
      </g>
     </g>
     <g id="text_15">
      <!-- 80 -->
      <g transform="translate(37.875 70.01179)scale(0.1 -0.1)">
       <use xlink:href="#DejaVuSans-38"/>
       <use x="63.623047" xlink:href="#DejaVuSans-30"/>
      </g>
     </g>
    </g>
    <g id="text_16">
     <!-- Frequency -->
     <g transform="translate(31.795312 200.357687)rotate(-90)scale(0.1 -0.1)">
      <defs>
       <path d="M 628 4666 
L 3309 4666 
L 3309 4134 
L 1259 4134 
L 1259 2759 
L 3109 2759 
L 3109 2228 
L 1259 2228 
L 1259 0 
L 628 0 
L 628 4666 
z
" id="DejaVuSans-46" transform="scale(0.015625)"/>
       <path d="M 2631 2963 
Q 2534 3019 2420 3045 
Q 2306 3072 2169 3072 
Q 1681 3072 1420 2755 
Q 1159 2438 1159 1844 
L 1159 0 
L 581 0 
L 581 3500 
L 1159 3500 
L 1159 2956 
Q 1341 3275 1631 3429 
Q 1922 3584 2338 3584 
Q 2397 3584 2469 3576 
Q 2541 3569 2628 3553 
L 2631 2963 
z
" id="DejaVuSans-72" transform="scale(0.015625)"/>
       <path d="M 947 1747 
Q 947 1113 1208 752 
Q 1469 391 1925 391 
Q 2381 391 2643 752 
Q 2906 1113 2906 1747 
Q 2906 2381 2643 2742 
Q 2381 3103 1925 3103 
Q 1469 3103 1208 2742 
Q 947 2381 947 1747 
z
M 2906 525 
Q 2725 213 2448 61 
Q 2172 -91 1784 -91 
Q 1150 -91 751 415 
Q 353 922 353 1747 
Q 353 2572 751 3078 
Q 1150 3584 1784 3584 
Q 2172 3584 2448 3432 
Q 2725 3281 2906 2969 
L 2906 3500 
L 3481 3500 
L 3481 -1331 
L 2906 -1331 
L 2906 525 
z
" id="DejaVuSans-71" transform="scale(0.015625)"/>
       <path d="M 544 1381 
L 544 3500 
L 1119 3500 
L 1119 1403 
Q 1119 906 1312 657 
Q 1506 409 1894 409 
Q 2359 409 2629 706 
Q 2900 1003 2900 1516 
L 2900 3500 
L 3475 3500 
L 3475 0 
L 2900 0 
L 2900 538 
Q 2691 219 2414 64 
Q 2138 -91 1772 -91 
Q 1169 -91 856 284 
Q 544 659 544 1381 
z
M 1991 3584 
L 1991 3584 
z
" id="DejaVuSans-75" transform="scale(0.015625)"/>
       <path d="M 3513 2113 
L 3513 0 
L 2938 0 
L 2938 2094 
Q 2938 2591 2744 2837 
Q 2550 3084 2163 3084 
Q 1697 3084 1428 2787 
Q 1159 2491 1159 1978 
L 1159 0 
L 581 0 
L 581 3500 
L 1159 3500 
L 1159 2956 
Q 1366 3272 1645 3428 
Q 1925 3584 2291 3584 
Q 2894 3584 3203 3211 
Q 3513 2838 3513 2113 
z
" id="DejaVuSans-6e" transform="scale(0.015625)"/>
       <path d="M 3122 3366 
L 3122 2828 
Q 2878 2963 2633 3030 
Q 2388 3097 2138 3097 
Q 1578 3097 1268 2742 
Q 959 2388 959 1747 
Q 959 1106 1268 751 
Q 1578 397 2138 397 
Q 2388 397 2633 464 
Q 2878 531 3122 666 
L 3122 134 
Q 2881 22 2623 -34 
Q 2366 -91 2075 -91 
Q 1284 -91 818 406 
Q 353 903 353 1747 
Q 353 2603 823 3093 
Q 1294 3584 2113 3584 
Q 2378 3584 2631 3529 
Q 2884 3475 3122 3366 
z
" id="DejaVuSans-63" transform="scale(0.015625)"/>
       <path d="M 2059 -325 
Q 1816 -950 1584 -1140 
Q 1353 -1331 966 -1331 
L 506 -1331 
L 506 -850 
L 844 -850 
Q 1081 -850 1212 -737 
Q 1344 -625 1503 -206 
L 1606 56 
L 191 3500 
L 800 3500 
L 1894 763 
L 2988 3500 
L 3597 3500 
L 2059 -325 
z
" id="DejaVuSans-79" transform="scale(0.015625)"/>
      </defs>
      <use xlink:href="#DejaVuSans-46"/>
      <use x="50.269531" xlink:href="#DejaVuSans-72"/>
      <use x="89.132812" xlink:href="#DejaVuSans-65"/>
      <use x="150.65625" xlink:href="#DejaVuSans-71"/>
      <use x="214.132812" xlink:href="#DejaVuSans-75"/>
      <use x="277.511719" xlink:href="#DejaVuSans-65"/>
      <use x="339.035156" xlink:href="#DejaVuSans-6e"/>
      <use x="402.414062" xlink:href="#DejaVuSans-63"/>
      <use x="457.394531" xlink:href="#DejaVuSans-79"/>
     </g>
    </g>
   </g>
   <g id="patch_53">
    <path d="M 57.6 307.584 
L 57.6 41.472 
" style="fill:none;stroke:#000000;stroke-linecap:square;stroke-linejoin:miter;stroke-width:0.8;"/>
   </g>
   <g id="patch_54">
    <path d="M 414.72 307.584 
L 414.72 41.472 
" style="fill:none;stroke:#000000;stroke-linecap:square;stroke-linejoin:miter;stroke-width:0.8;"/>
   </g>
   <g id="patch_55">
    <path d="M 57.6 307.584 
L 414.72 307.584 
" style="fill:none;stroke:#000000;stroke-linecap:square;stroke-linejoin:miter;stroke-width:0.8;"/>
   </g>
   <g id="patch_56">
    <path d="M 57.6 41.472 
L 414.72 41.472 
" style="fill:none;stroke:#000000;stroke-linecap:square;stroke-linejoin:miter;stroke-width:0.8;"/>
   </g>
  </g>
 </g>
 <defs>
  <clipPath id="pf9f30207ed">
   <rect height="266.112" width="357.12" x="57.6" y="41.472"/>
  </clipPath>
 </defs>
</svg>
