<?xml version="1.0" encoding="utf-8" standalone="no"?>
<!DOCTYPE svg PUBLIC "-//W3C//DTD SVG 1.1//EN"
  "http://www.w3.org/Graphics/SVG/1.1/DTD/svg11.dtd">
<svg xmlns:xlink="http://www.w3.org/1999/xlink" width="1080pt" height="720pt" viewBox="0 0 1080 720" xmlns="http://www.w3.org/2000/svg" version="1.1">
 <metadata>
  <rdf:RDF xmlns:dc="http://purl.org/dc/elements/1.1/" xmlns:cc="http://creativecommons.org/ns#" xmlns:rdf="http://www.w3.org/1999/02/22-rdf-syntax-ns#">
   <cc:Work>
    <dc:type rdf:resource="http://purl.org/dc/dcmitype/StillImage"/>
    <dc:date>2022-10-07T12:34:32.462981</dc:date>
    <dc:format>image/svg+xml</dc:format>
    <dc:creator>
     <cc:Agent>
      <dc:title>Matplotlib v3.5.3, https://matplotlib.org/</dc:title>
     </cc:Agent>
    </dc:creator>
   </cc:Work>
  </rdf:RDF>
 </metadata>
 <defs>
  <style type="text/css">*{stroke-linejoin: round; stroke-linecap: butt}</style>
 </defs>
 <g id="figure_1">
  <g id="patch_1">
   <path d="M 0 720 
L 1080 720 
L 1080 0 
L 0 0 
z
" style="fill: #ffffff"/>
  </g>
  <g id="axes_1">
   <g id="patch_2">
    <path d="M 47.72 678.04 
L 1069.2 678.04 
L 1069.2 10.8 
L 47.72 10.8 
z
" style="fill: #ffffff"/>
   </g>
   <g id="patch_3">
    <path d="M 94.150909 678.04 
L 97.83225 678.04 
L 97.83225 550.678012 
L 94.150909 550.678012 
z
" clip-path="url(#pc1617c0751)" style="fill: #1f77b4; opacity: 0.5"/>
   </g>
   <g id="patch_4">
    <path d="M 98.752585 678.04 
L 102.433926 678.04 
L 102.433926 604.778354 
L 98.752585 604.778354 
z
" clip-path="url(#pc1617c0751)" style="fill: #1f77b4; opacity: 0.5"/>
   </g>
   <g id="patch_5">
    <path d="M 103.354261 678.04 
L 107.035601 678.04 
L 107.035601 637.129884 
L 103.354261 637.129884 
z
" clip-path="url(#pc1617c0751)" style="fill: #1f77b4; opacity: 0.5"/>
   </g>
   <g id="patch_6">
    <path d="M 107.955937 678.04 
L 111.637277 678.04 
L 111.637277 652.339864 
L 107.955937 652.339864 
z
" clip-path="url(#pc1617c0751)" style="fill: #1f77b4; opacity: 0.5"/>
   </g>
   <g id="patch_7">
    <path d="M 112.557612 678.04 
L 116.238953 678.04 
L 116.238953 655.023069 
L 112.557612 655.023069 
z
" clip-path="url(#pc1617c0751)" style="fill: #1f77b4; opacity: 0.5"/>
   </g>
   <g id="patch_8">
    <path d="M 117.159288 678.04 
L 120.840629 678.04 
L 120.840629 658.560981 
L 117.159288 658.560981 
z
" clip-path="url(#pc1617c0751)" style="fill: #1f77b4; opacity: 0.5"/>
   </g>
   <g id="patch_9">
    <path d="M 121.760964 678.04 
L 125.442305 678.04 
L 125.442305 662.00249 
L 121.760964 662.00249 
z
" clip-path="url(#pc1617c0751)" style="fill: #1f77b4; opacity: 0.5"/>
   </g>
   <g id="patch_10">
    <path d="M 126.36264 678.04 
L 130.043981 678.04 
L 130.043981 664.309649 
L 126.36264 664.309649 
z
" clip-path="url(#pc1617c0751)" style="fill: #1f77b4; opacity: 0.5"/>
   </g>
   <g id="patch_11">
    <path d="M 130.964316 678.04 
L 134.645656 678.04 
L 134.645656 665.868509 
L 130.964316 665.868509 
z
" clip-path="url(#pc1617c0751)" style="fill: #1f77b4; opacity: 0.5"/>
   </g>
   <g id="patch_12">
    <path d="M 135.565992 678.04 
L 139.247332 678.04 
L 139.247332 667.308705 
L 135.565992 667.308705 
z
" clip-path="url(#pc1617c0751)" style="fill: #1f77b4; opacity: 0.5"/>
   </g>
   <g id="patch_13">
    <path d="M 140.167667 678.04 
L 143.849008 678.04 
L 143.849008 668.632032 
L 140.167667 668.632032 
z
" clip-path="url(#pc1617c0751)" style="fill: #1f77b4; opacity: 0.5"/>
   </g>
   <g id="patch_14">
    <path d="M 144.769343 678.04 
L 148.450684 678.04 
L 148.450684 669.116537 
L 144.769343 669.116537 
z
" clip-path="url(#pc1617c0751)" style="fill: #1f77b4; opacity: 0.5"/>
   </g>
   <g id="patch_15">
    <path d="M 149.371019 678.04 
L 153.05236 678.04 
L 153.05236 670.900011 
L 149.371019 670.900011 
z
" clip-path="url(#pc1617c0751)" style="fill: #1f77b4; opacity: 0.5"/>
   </g>
   <g id="patch_16">
    <path d="M 153.972695 678.04 
L 157.654035 678.04 
L 157.654035 671.51845 
L 153.972695 671.51845 
z
" clip-path="url(#pc1617c0751)" style="fill: #1f77b4; opacity: 0.5"/>
   </g>
   <g id="patch_17">
    <path d="M 158.574371 678.04 
L 162.255711 678.04 
L 162.255711 671.894209 
L 158.574371 671.894209 
z
" clip-path="url(#pc1617c0751)" style="fill: #1f77b4; opacity: 0.5"/>
   </g>
   <g id="patch_18">
    <path d="M 163.176046 678.04 
L 166.857387 678.04 
L 166.857387 672.056014 
L 163.176046 672.056014 
z
" clip-path="url(#pc1617c0751)" style="fill: #1f77b4; opacity: 0.5"/>
   </g>
   <g id="patch_19">
    <path d="M 167.777722 678.04 
L 171.459063 678.04 
L 171.459063 672.442639 
L 167.777722 672.442639 
z
" clip-path="url(#pc1617c0751)" style="fill: #1f77b4; opacity: 0.5"/>
   </g>
   <g id="patch_20">
    <path d="M 172.379398 678.04 
L 176.060739 678.04 
L 176.060739 673.047195 
L 172.379398 673.047195 
z
" clip-path="url(#pc1617c0751)" style="fill: #1f77b4; opacity: 0.5"/>
   </g>
   <g id="patch_21">
    <path d="M 176.981074 678.04 
L 180.662415 678.04 
L 180.662415 673.284647 
L 176.981074 673.284647 
z
" clip-path="url(#pc1617c0751)" style="fill: #1f77b4; opacity: 0.5"/>
   </g>
   <g id="patch_22">
    <path d="M 181.58275 678.04 
L 185.26409 678.04 
L 185.26409 673.45041 
L 181.58275 673.45041 
z
" clip-path="url(#pc1617c0751)" style="fill: #1f77b4; opacity: 0.5"/>
   </g>
   <g id="patch_23">
    <path d="M 186.184426 678.04 
L 189.865766 678.04 
L 189.865766 673.667766 
L 186.184426 673.667766 
z
" clip-path="url(#pc1617c0751)" style="fill: #1f77b4; opacity: 0.5"/>
   </g>
   <g id="patch_24">
    <path d="M 190.786101 678.04 
L 194.467442 678.04 
L 194.467442 673.888644 
L 190.786101 673.888644 
z
" clip-path="url(#pc1617c0751)" style="fill: #1f77b4; opacity: 0.5"/>
   </g>
   <g id="patch_25">
    <path d="M 195.387777 678.04 
L 199.069118 678.04 
L 199.069118 674.232184 
L 195.387777 674.232184 
z
" clip-path="url(#pc1617c0751)" style="fill: #1f77b4; opacity: 0.5"/>
   </g>
   <g id="patch_26">
    <path d="M 199.989453 678.04 
L 203.670794 678.04 
L 203.670794 674.298584 
L 199.989453 674.298584 
z
" clip-path="url(#pc1617c0751)" style="fill: #1f77b4; opacity: 0.5"/>
   </g>
   <g id="patch_27">
    <path d="M 204.591129 678.04 
L 208.27247 678.04 
L 208.27247 674.387452 
L 204.591129 674.387452 
z
" clip-path="url(#pc1617c0751)" style="fill: #1f77b4; opacity: 0.5"/>
   </g>
   <g id="patch_28">
    <path d="M 209.192805 678.04 
L 212.874145 678.04 
L 212.874145 674.467904 
L 209.192805 674.467904 
z
" clip-path="url(#pc1617c0751)" style="fill: #1f77b4; opacity: 0.5"/>
   </g>
   <g id="patch_29">
    <path d="M 213.794481 678.04 
L 217.475821 678.04 
L 217.475821 674.705562 
L 213.794481 674.705562 
z
" clip-path="url(#pc1617c0751)" style="fill: #1f77b4; opacity: 0.5"/>
   </g>
   <g id="patch_30">
    <path d="M 218.396156 678.04 
L 222.077497 678.04 
L 222.077497 674.770335 
L 218.396156 674.770335 
z
" clip-path="url(#pc1617c0751)" style="fill: #1f77b4; opacity: 0.5"/>
   </g>
   <g id="patch_31">
    <path d="M 222.997832 678.04 
L 226.679173 678.04 
L 226.679173 674.925899 
L 222.997832 674.925899 
z
" clip-path="url(#pc1617c0751)" style="fill: #1f77b4; opacity: 0.5"/>
   </g>
   <g id="patch_32">
    <path d="M 227.599508 678.04 
L 231.280849 678.04 
L 231.280849 675.004149 
L 227.599508 675.004149 
z
" clip-path="url(#pc1617c0751)" style="fill: #1f77b4; opacity: 0.5"/>
   </g>
   <g id="patch_33">
    <path d="M 232.201184 678.04 
L 235.882525 678.04 
L 235.882525 675.045685 
L 232.201184 675.045685 
z
" clip-path="url(#pc1617c0751)" style="fill: #1f77b4; opacity: 0.5"/>
   </g>
   <g id="patch_34">
    <path d="M 236.80286 678.04 
L 240.4842 678.04 
L 240.4842 675.076636 
L 236.80286 675.076636 
z
" clip-path="url(#pc1617c0751)" style="fill: #1f77b4; opacity: 0.5"/>
   </g>
   <g id="patch_35">
    <path d="M 241.404536 678.04 
L 245.085876 678.04 
L 245.085876 675.154451 
L 241.404536 675.154451 
z
" clip-path="url(#pc1617c0751)" style="fill: #1f77b4; opacity: 0.5"/>
   </g>
   <g id="patch_36">
    <path d="M 246.006211 678.04 
L 249.687552 678.04 
L 249.687552 675.342555 
L 246.006211 675.342555 
z
" clip-path="url(#pc1617c0751)" style="fill: #1f77b4; opacity: 0.5"/>
   </g>
   <g id="patch_37">
    <path d="M 250.607887 678.04 
L 254.289228 678.04 
L 254.289228 675.370155 
L 250.607887 675.370155 
z
" clip-path="url(#pc1617c0751)" style="fill: #1f77b4; opacity: 0.5"/>
   </g>
   <g id="patch_38">
    <path d="M 255.209563 678.04 
L 258.890904 678.04 
L 258.890904 675.530429 
L 255.209563 675.530429 
z
" clip-path="url(#pc1617c0751)" style="fill: #1f77b4; opacity: 0.5"/>
   </g>
   <g id="patch_39">
    <path d="M 259.811239 678.04 
L 263.49258 678.04 
L 263.49258 675.570218 
L 259.811239 675.570218 
z
" clip-path="url(#pc1617c0751)" style="fill: #1f77b4; opacity: 0.5"/>
   </g>
   <g id="patch_40">
    <path d="M 264.412915 678.04 
L 268.094255 678.04 
L 268.094255 675.694198 
L 264.412915 675.694198 
z
" clip-path="url(#pc1617c0751)" style="fill: #1f77b4; opacity: 0.5"/>
   </g>
   <g id="patch_41">
    <path d="M 269.014591 678.04 
L 272.695931 678.04 
L 272.695931 675.711985 
L 269.014591 675.711985 
z
" clip-path="url(#pc1617c0751)" style="fill: #1f77b4; opacity: 0.5"/>
   </g>
   <g id="patch_42">
    <path d="M 273.616266 678.04 
L 277.297607 678.04 
L 277.297607 675.744655 
L 273.616266 675.744655 
z
" clip-path="url(#pc1617c0751)" style="fill: #1f77b4; opacity: 0.5"/>
   </g>
   <g id="patch_43">
    <path d="M 278.217942 678.04 
L 281.899283 678.04 
L 281.899283 675.795368 
L 278.217942 675.795368 
z
" clip-path="url(#pc1617c0751)" style="fill: #1f77b4; opacity: 0.5"/>
   </g>
   <g id="patch_44">
    <path d="M 282.819618 678.04 
L 286.500959 678.04 
L 286.500959 675.903253 
L 282.819618 675.903253 
z
" clip-path="url(#pc1617c0751)" style="fill: #1f77b4; opacity: 0.5"/>
   </g>
   <g id="patch_45">
    <path d="M 287.421294 678.04 
L 291.102634 678.04 
L 291.102634 675.933623 
L 287.421294 675.933623 
z
" clip-path="url(#pc1617c0751)" style="fill: #1f77b4; opacity: 0.5"/>
   </g>
   <g id="patch_46">
    <path d="M 292.02297 678.04 
L 295.70431 678.04 
L 295.70431 675.943647 
L 292.02297 675.943647 
z
" clip-path="url(#pc1617c0751)" style="fill: #1f77b4; opacity: 0.5"/>
   </g>
   <g id="patch_47">
    <path d="M 296.624645 678.04 
L 300.305986 678.04 
L 300.305986 676.018036 
L 296.624645 676.018036 
z
" clip-path="url(#pc1617c0751)" style="fill: #1f77b4; opacity: 0.5"/>
   </g>
   <g id="patch_48">
    <path d="M 301.226321 678.04 
L 304.907662 678.04 
L 304.907662 676.041819 
L 301.226321 676.041819 
z
" clip-path="url(#pc1617c0751)" style="fill: #1f77b4; opacity: 0.5"/>
   </g>
   <g id="patch_49">
    <path d="M 305.827997 678.04 
L 309.509338 678.04 
L 309.509338 676.107881 
L 305.827997 676.107881 
z
" clip-path="url(#pc1617c0751)" style="fill: #1f77b4; opacity: 0.5"/>
   </g>
   <g id="patch_50">
    <path d="M 310.429673 678.04 
L 314.111014 678.04 
L 314.111014 676.155275 
L 310.429673 676.155275 
z
" clip-path="url(#pc1617c0751)" style="fill: #1f77b4; opacity: 0.5"/>
   </g>
   <g id="patch_51">
    <path d="M 315.031349 678.04 
L 318.712689 678.04 
L 318.712689 676.230488 
L 315.031349 676.230488 
z
" clip-path="url(#pc1617c0751)" style="fill: #1f77b4; opacity: 0.5"/>
   </g>
   <g id="patch_52">
    <path d="M 319.633025 678.04 
L 323.314365 678.04 
L 323.314365 676.242233 
L 319.633025 676.242233 
z
" clip-path="url(#pc1617c0751)" style="fill: #1f77b4; opacity: 0.5"/>
   </g>
   <g id="patch_53">
    <path d="M 324.2347 678.04 
L 327.916041 678.04 
L 327.916041 676.275485 
L 324.2347 676.275485 
z
" clip-path="url(#pc1617c0751)" style="fill: #1f77b4; opacity: 0.5"/>
   </g>
   <g id="patch_54">
    <path d="M 328.836376 678.04 
L 332.517717 678.04 
L 332.517717 676.29496 
L 328.836376 676.29496 
z
" clip-path="url(#pc1617c0751)" style="fill: #1f77b4; opacity: 0.5"/>
   </g>
   <g id="patch_55">
    <path d="M 333.438052 678.04 
L 337.119393 678.04 
L 337.119393 676.361116 
L 333.438052 676.361116 
z
" clip-path="url(#pc1617c0751)" style="fill: #1f77b4; opacity: 0.5"/>
   </g>
   <g id="patch_56">
    <path d="M 338.039728 678.04 
L 341.721069 678.04 
L 341.721069 676.371192 
L 338.039728 676.371192 
z
" clip-path="url(#pc1617c0751)" style="fill: #1f77b4; opacity: 0.5"/>
   </g>
   <g id="patch_57">
    <path d="M 342.641404 678.04 
L 346.322744 678.04 
L 346.322744 676.390683 
L 342.641404 676.390683 
z
" clip-path="url(#pc1617c0751)" style="fill: #1f77b4; opacity: 0.5"/>
   </g>
   <g id="patch_58">
    <path d="M 347.24308 678.04 
L 350.92442 678.04 
L 350.92442 676.423926 
L 347.24308 676.423926 
z
" clip-path="url(#pc1617c0751)" style="fill: #1f77b4; opacity: 0.5"/>
   </g>
   <g id="patch_59">
    <path d="M 351.844755 678.04 
L 355.526096 678.04 
L 355.526096 676.452612 
L 351.844755 676.452612 
z
" clip-path="url(#pc1617c0751)" style="fill: #1f77b4; opacity: 0.5"/>
   </g>
   <g id="patch_60">
    <path d="M 356.446431 678.04 
L 360.127772 678.04 
L 360.127772 676.477637 
L 356.446431 676.477637 
z
" clip-path="url(#pc1617c0751)" style="fill: #1f77b4; opacity: 0.5"/>
   </g>
   <g id="patch_61">
    <path d="M 361.048107 678.04 
L 364.729448 678.04 
L 364.729448 676.48718 
L 361.048107 676.48718 
z
" clip-path="url(#pc1617c0751)" style="fill: #1f77b4; opacity: 0.5"/>
   </g>
   <g id="patch_62">
    <path d="M 365.649783 678.04 
L 369.331124 678.04 
L 369.331124 676.50327 
L 365.649783 676.50327 
z
" clip-path="url(#pc1617c0751)" style="fill: #1f77b4; opacity: 0.5"/>
   </g>
   <g id="patch_63">
    <path d="M 370.251459 678.04 
L 373.932799 678.04 
L 373.932799 676.526523 
L 370.251459 676.526523 
z
" clip-path="url(#pc1617c0751)" style="fill: #1f77b4; opacity: 0.5"/>
   </g>
   <g id="patch_64">
    <path d="M 374.853135 678.04 
L 378.534475 678.04 
L 378.534475 676.545213 
L 374.853135 676.545213 
z
" clip-path="url(#pc1617c0751)" style="fill: #1f77b4; opacity: 0.5"/>
   </g>
   <g id="patch_65">
    <path d="M 379.45481 678.04 
L 383.136151 678.04 
L 383.136151 676.574774 
L 379.45481 676.574774 
z
" clip-path="url(#pc1617c0751)" style="fill: #1f77b4; opacity: 0.5"/>
   </g>
   <g id="patch_66">
    <path d="M 384.056486 678.04 
L 387.737827 678.04 
L 387.737827 676.584664 
L 384.056486 676.584664 
z
" clip-path="url(#pc1617c0751)" style="fill: #1f77b4; opacity: 0.5"/>
   </g>
   <g id="patch_67">
    <path d="M 388.658162 678.04 
L 392.339503 678.04 
L 392.339503 676.593251 
L 388.658162 676.593251 
z
" clip-path="url(#pc1617c0751)" style="fill: #1f77b4; opacity: 0.5"/>
   </g>
   <g id="patch_68">
    <path d="M 393.259838 678.04 
L 396.941178 678.04 
L 396.941178 676.638527 
L 393.259838 676.638527 
z
" clip-path="url(#pc1617c0751)" style="fill: #1f77b4; opacity: 0.5"/>
   </g>
   <g id="patch_69">
    <path d="M 397.861514 678.04 
L 401.542854 678.04 
L 401.542854 676.6655 
L 397.861514 676.6655 
z
" clip-path="url(#pc1617c0751)" style="fill: #1f77b4; opacity: 0.5"/>
   </g>
   <g id="patch_70">
    <path d="M 402.463189 678.04 
L 406.14453 678.04 
L 406.14453 676.684711 
L 402.463189 676.684711 
z
" clip-path="url(#pc1617c0751)" style="fill: #1f77b4; opacity: 0.5"/>
   </g>
   <g id="patch_71">
    <path d="M 407.064865 678.04 
L 410.746206 678.04 
L 410.746206 676.706587 
L 407.064865 676.706587 
z
" clip-path="url(#pc1617c0751)" style="fill: #1f77b4; opacity: 0.5"/>
   </g>
   <g id="patch_72">
    <path d="M 411.666541 678.04 
L 415.347882 678.04 
L 415.347882 676.720137 
L 411.666541 676.720137 
z
" clip-path="url(#pc1617c0751)" style="fill: #1f77b4; opacity: 0.5"/>
   </g>
   <g id="patch_73">
    <path d="M 416.268217 678.04 
L 419.949558 678.04 
L 419.949558 676.735833 
L 416.268217 676.735833 
z
" clip-path="url(#pc1617c0751)" style="fill: #1f77b4; opacity: 0.5"/>
   </g>
   <g id="patch_74">
    <path d="M 420.869893 678.04 
L 424.551233 678.04 
L 424.551233 676.757117 
L 420.869893 676.757117 
z
" clip-path="url(#pc1617c0751)" style="fill: #1f77b4; opacity: 0.5"/>
   </g>
   <g id="patch_75">
    <path d="M 425.471569 678.04 
L 429.152909 678.04 
L 429.152909 676.783278 
L 425.471569 676.783278 
z
" clip-path="url(#pc1617c0751)" style="fill: #1f77b4; opacity: 0.5"/>
   </g>
   <g id="patch_76">
    <path d="M 430.073244 678.04 
L 433.754585 678.04 
L 433.754585 676.787714 
L 430.073244 676.787714 
z
" clip-path="url(#pc1617c0751)" style="fill: #1f77b4; opacity: 0.5"/>
   </g>
   <g id="patch_77">
    <path d="M 434.67492 678.04 
L 438.356261 678.04 
L 438.356261 676.807222 
L 434.67492 676.807222 
z
" clip-path="url(#pc1617c0751)" style="fill: #1f77b4; opacity: 0.5"/>
   </g>
   <g id="patch_78">
    <path d="M 439.276596 678.04 
L 442.957937 678.04 
L 442.957937 676.824174 
L 439.276596 676.824174 
z
" clip-path="url(#pc1617c0751)" style="fill: #1f77b4; opacity: 0.5"/>
   </g>
   <g id="patch_79">
    <path d="M 443.878272 678.04 
L 447.559613 678.04 
L 447.559613 676.84382 
L 443.878272 676.84382 
z
" clip-path="url(#pc1617c0751)" style="fill: #1f77b4; opacity: 0.5"/>
   </g>
   <g id="patch_80">
    <path d="M 448.479948 678.04 
L 452.161288 678.04 
L 452.161288 676.865293 
L 448.479948 676.865293 
z
" clip-path="url(#pc1617c0751)" style="fill: #1f77b4; opacity: 0.5"/>
   </g>
   <g id="patch_81">
    <path d="M 453.081624 678.04 
L 456.762964 678.04 
L 456.762964 676.876507 
L 453.081624 676.876507 
z
" clip-path="url(#pc1617c0751)" style="fill: #1f77b4; opacity: 0.5"/>
   </g>
   <g id="patch_82">
    <path d="M 457.683299 678.04 
L 461.36464 678.04 
L 461.36464 676.886252 
L 457.683299 676.886252 
z
" clip-path="url(#pc1617c0751)" style="fill: #1f77b4; opacity: 0.5"/>
   </g>
   <g id="patch_83">
    <path d="M 462.284975 678.04 
L 465.966316 678.04 
L 465.966316 676.900787 
L 462.284975 676.900787 
z
" clip-path="url(#pc1617c0751)" style="fill: #1f77b4; opacity: 0.5"/>
   </g>
   <g id="patch_84">
    <path d="M 466.886651 678.04 
L 470.567992 678.04 
L 470.567992 676.903906 
L 466.886651 676.903906 
z
" clip-path="url(#pc1617c0751)" style="fill: #1f77b4; opacity: 0.5"/>
   </g>
   <g id="patch_85">
    <path d="M 471.488327 678.04 
L 475.169668 678.04 
L 475.169668 676.912549 
L 471.488327 676.912549 
z
" clip-path="url(#pc1617c0751)" style="fill: #1f77b4; opacity: 0.5"/>
   </g>
   <g id="patch_86">
    <path d="M 476.090003 678.04 
L 479.771343 678.04 
L 479.771343 676.925111 
L 476.090003 676.925111 
z
" clip-path="url(#pc1617c0751)" style="fill: #1f77b4; opacity: 0.5"/>
   </g>
   <g id="patch_87">
    <path d="M 480.691679 678.04 
L 484.373019 678.04 
L 484.373019 676.951111 
L 480.691679 676.951111 
z
" clip-path="url(#pc1617c0751)" style="fill: #1f77b4; opacity: 0.5"/>
   </g>
   <g id="patch_88">
    <path d="M 485.293354 678.04 
L 488.974695 678.04 
L 488.974695 676.971375 
L 485.293354 676.971375 
z
" clip-path="url(#pc1617c0751)" style="fill: #1f77b4; opacity: 0.5"/>
   </g>
   <g id="patch_89">
    <path d="M 489.89503 678.04 
L 493.576371 678.04 
L 493.576371 676.981325 
L 489.89503 676.981325 
z
" clip-path="url(#pc1617c0751)" style="fill: #1f77b4; opacity: 0.5"/>
   </g>
   <g id="patch_90">
    <path d="M 494.496706 678.04 
L 498.178047 678.04 
L 498.178047 676.985303 
L 494.496706 676.985303 
z
" clip-path="url(#pc1617c0751)" style="fill: #1f77b4; opacity: 0.5"/>
   </g>
   <g id="patch_91">
    <path d="M 499.098382 678.04 
L 502.779722 678.04 
L 502.779722 677.000276 
L 499.098382 677.000276 
z
" clip-path="url(#pc1617c0751)" style="fill: #1f77b4; opacity: 0.5"/>
   </g>
   <g id="patch_92">
    <path d="M 503.700058 678.04 
L 507.381398 678.04 
L 507.381398 677.011267 
L 503.700058 677.011267 
z
" clip-path="url(#pc1617c0751)" style="fill: #1f77b4; opacity: 0.5"/>
   </g>
   <g id="patch_93">
    <path d="M 508.301733 678.04 
L 511.983074 678.04 
L 511.983074 677.02655 
L 508.301733 677.02655 
z
" clip-path="url(#pc1617c0751)" style="fill: #1f77b4; opacity: 0.5"/>
   </g>
   <g id="patch_94">
    <path d="M 512.903409 678.04 
L 516.58475 678.04 
L 516.58475 677.041363 
L 512.903409 677.041363 
z
" clip-path="url(#pc1617c0751)" style="fill: #1f77b4; opacity: 0.5"/>
   </g>
   <g id="patch_95">
    <path d="M 517.505085 678.04 
L 521.186426 678.04 
L 521.186426 677.049081 
L 517.505085 677.049081 
z
" clip-path="url(#pc1617c0751)" style="fill: #1f77b4; opacity: 0.5"/>
   </g>
   <g id="patch_96">
    <path d="M 522.106761 678.04 
L 525.788102 678.04 
L 525.788102 677.059316 
L 522.106761 677.059316 
z
" clip-path="url(#pc1617c0751)" style="fill: #1f77b4; opacity: 0.5"/>
   </g>
   <g id="patch_97">
    <path d="M 526.708437 678.04 
L 530.389777 678.04 
L 530.389777 677.063659 
L 526.708437 677.063659 
z
" clip-path="url(#pc1617c0751)" style="fill: #1f77b4; opacity: 0.5"/>
   </g>
   <g id="patch_98">
    <path d="M 531.310113 678.04 
L 534.991453 678.04 
L 534.991453 677.07488 
L 531.310113 677.07488 
z
" clip-path="url(#pc1617c0751)" style="fill: #1f77b4; opacity: 0.5"/>
   </g>
   <g id="patch_99">
    <path d="M 535.911788 678.04 
L 539.593129 678.04 
L 539.593129 677.087077 
L 535.911788 677.087077 
z
" clip-path="url(#pc1617c0751)" style="fill: #1f77b4; opacity: 0.5"/>
   </g>
   <g id="patch_100">
    <path d="M 540.513464 678.04 
L 544.194805 678.04 
L 544.194805 677.101579 
L 540.513464 677.101579 
z
" clip-path="url(#pc1617c0751)" style="fill: #1f77b4; opacity: 0.5"/>
   </g>
   <g id="patch_101">
    <path d="M 545.11514 678.04 
L 548.796481 678.04 
L 548.796481 677.106609 
L 545.11514 677.106609 
z
" clip-path="url(#pc1617c0751)" style="fill: #1f77b4; opacity: 0.5"/>
   </g>
   <g id="patch_102">
    <path d="M 549.716816 678.04 
L 553.398157 678.04 
L 553.398157 677.121058 
L 549.716816 677.121058 
z
" clip-path="url(#pc1617c0751)" style="fill: #1f77b4; opacity: 0.5"/>
   </g>
   <g id="patch_103">
    <path d="M 554.318492 678.04 
L 557.999832 678.04 
L 557.999832 677.121331 
L 554.318492 677.121331 
z
" clip-path="url(#pc1617c0751)" style="fill: #1f77b4; opacity: 0.5"/>
   </g>
   <g id="patch_104">
    <path d="M 558.920168 678.04 
L 562.601508 678.04 
L 562.601508 677.128119 
L 558.920168 677.128119 
z
" clip-path="url(#pc1617c0751)" style="fill: #1f77b4; opacity: 0.5"/>
   </g>
   <g id="patch_105">
    <path d="M 563.521843 678.04 
L 567.203184 678.04 
L 567.203184 677.145311 
L 563.521843 677.145311 
z
" clip-path="url(#pc1617c0751)" style="fill: #1f77b4; opacity: 0.5"/>
   </g>
   <g id="patch_106">
    <path d="M 568.123519 678.04 
L 571.80486 678.04 
L 571.80486 677.153932 
L 568.123519 677.153932 
z
" clip-path="url(#pc1617c0751)" style="fill: #1f77b4; opacity: 0.5"/>
   </g>
   <g id="patch_107">
    <path d="M 572.725195 678.04 
L 576.406536 678.04 
L 576.406536 677.157426 
L 572.725195 677.157426 
z
" clip-path="url(#pc1617c0751)" style="fill: #1f77b4; opacity: 0.5"/>
   </g>
   <g id="patch_108">
    <path d="M 577.326871 678.04 
L 581.008212 678.04 
L 581.008212 677.168295 
L 577.326871 677.168295 
z
" clip-path="url(#pc1617c0751)" style="fill: #1f77b4; opacity: 0.5"/>
   </g>
   <g id="patch_109">
    <path d="M 581.928547 678.04 
L 585.609887 678.04 
L 585.609887 677.177232 
L 581.928547 677.177232 
z
" clip-path="url(#pc1617c0751)" style="fill: #1f77b4; opacity: 0.5"/>
   </g>
   <g id="patch_110">
    <path d="M 586.530223 678.04 
L 590.211563 678.04 
L 590.211563 677.181948 
L 586.530223 677.181948 
z
" clip-path="url(#pc1617c0751)" style="fill: #1f77b4; opacity: 0.5"/>
   </g>
   <g id="patch_111">
    <path d="M 591.131898 678.04 
L 594.813239 678.04 
L 594.813239 677.188249 
L 591.131898 677.188249 
z
" clip-path="url(#pc1617c0751)" style="fill: #1f77b4; opacity: 0.5"/>
   </g>
   <g id="patch_112">
    <path d="M 595.733574 678.04 
L 599.414915 678.04 
L 599.414915 677.197593 
L 595.733574 677.197593 
z
" clip-path="url(#pc1617c0751)" style="fill: #1f77b4; opacity: 0.5"/>
   </g>
   <g id="patch_113">
    <path d="M 600.33525 678.04 
L 604.016591 678.04 
L 604.016591 677.212072 
L 600.33525 677.212072 
z
" clip-path="url(#pc1617c0751)" style="fill: #1f77b4; opacity: 0.5"/>
   </g>
   <g id="patch_114">
    <path d="M 604.936926 678.04 
L 608.618267 678.04 
L 608.618267 677.221715 
L 604.936926 677.221715 
z
" clip-path="url(#pc1617c0751)" style="fill: #1f77b4; opacity: 0.5"/>
   </g>
   <g id="patch_115">
    <path d="M 609.538602 678.04 
L 613.219942 678.04 
L 613.219942 677.22476 
L 609.538602 677.22476 
z
" clip-path="url(#pc1617c0751)" style="fill: #1f77b4; opacity: 0.5"/>
   </g>
   <g id="patch_116">
    <path d="M 614.140278 678.04 
L 617.821618 678.04 
L 617.821618 677.228619 
L 614.140278 677.228619 
z
" clip-path="url(#pc1617c0751)" style="fill: #1f77b4; opacity: 0.5"/>
   </g>
   <g id="patch_117">
    <path d="M 618.741953 678.04 
L 622.423294 678.04 
L 622.423294 677.23673 
L 618.741953 677.23673 
z
" clip-path="url(#pc1617c0751)" style="fill: #1f77b4; opacity: 0.5"/>
   </g>
   <g id="patch_118">
    <path d="M 623.343629 678.04 
L 627.02497 678.04 
L 627.02497 677.244689 
L 623.343629 677.244689 
z
" clip-path="url(#pc1617c0751)" style="fill: #1f77b4; opacity: 0.5"/>
   </g>
   <g id="patch_119">
    <path d="M 627.945305 678.04 
L 631.626646 678.04 
L 631.626646 677.254614 
L 627.945305 677.254614 
z
" clip-path="url(#pc1617c0751)" style="fill: #1f77b4; opacity: 0.5"/>
   </g>
   <g id="patch_120">
    <path d="M 632.546981 678.04 
L 636.228321 678.04 
L 636.228321 677.260781 
L 632.546981 677.260781 
z
" clip-path="url(#pc1617c0751)" style="fill: #1f77b4; opacity: 0.5"/>
   </g>
   <g id="patch_121">
    <path d="M 637.148657 678.04 
L 640.829997 678.04 
L 640.829997 677.264457 
L 637.148657 677.264457 
z
" clip-path="url(#pc1617c0751)" style="fill: #1f77b4; opacity: 0.5"/>
   </g>
   <g id="patch_122">
    <path d="M 641.750332 678.04 
L 645.431673 678.04 
L 645.431673 677.27703 
L 641.750332 677.27703 
z
" clip-path="url(#pc1617c0751)" style="fill: #1f77b4; opacity: 0.5"/>
   </g>
   <g id="patch_123">
    <path d="M 646.352008 678.04 
L 650.033349 678.04 
L 650.033349 677.277799 
L 646.352008 677.277799 
z
" clip-path="url(#pc1617c0751)" style="fill: #1f77b4; opacity: 0.5"/>
   </g>
   <g id="patch_124">
    <path d="M 650.953684 678.04 
L 654.635025 678.04 
L 654.635025 677.286192 
L 650.953684 677.286192 
z
" clip-path="url(#pc1617c0751)" style="fill: #1f77b4; opacity: 0.5"/>
   </g>
   <g id="patch_125">
    <path d="M 655.55536 678.04 
L 659.236701 678.04 
L 659.236701 677.293413 
L 655.55536 677.293413 
z
" clip-path="url(#pc1617c0751)" style="fill: #1f77b4; opacity: 0.5"/>
   </g>
   <g id="patch_126">
    <path d="M 660.157036 678.04 
L 663.838376 678.04 
L 663.838376 677.303387 
L 660.157036 677.303387 
z
" clip-path="url(#pc1617c0751)" style="fill: #1f77b4; opacity: 0.5"/>
   </g>
   <g id="patch_127">
    <path d="M 664.758712 678.04 
L 668.440052 678.04 
L 668.440052 677.304692 
L 664.758712 677.304692 
z
" clip-path="url(#pc1617c0751)" style="fill: #1f77b4; opacity: 0.5"/>
   </g>
   <g id="patch_128">
    <path d="M 669.360387 678.04 
L 673.041728 678.04 
L 673.041728 677.310466 
L 669.360387 677.310466 
z
" clip-path="url(#pc1617c0751)" style="fill: #1f77b4; opacity: 0.5"/>
   </g>
   <g id="patch_129">
    <path d="M 673.962063 678.04 
L 677.643404 678.04 
L 677.643404 677.315773 
L 673.962063 677.315773 
z
" clip-path="url(#pc1617c0751)" style="fill: #1f77b4; opacity: 0.5"/>
   </g>
   <g id="patch_130">
    <path d="M 678.563739 678.04 
L 682.24508 678.04 
L 682.24508 677.32556 
L 678.563739 677.32556 
z
" clip-path="url(#pc1617c0751)" style="fill: #1f77b4; opacity: 0.5"/>
   </g>
   <g id="patch_131">
    <path d="M 683.165415 678.04 
L 686.846756 678.04 
L 686.846756 677.327336 
L 683.165415 677.327336 
z
" clip-path="url(#pc1617c0751)" style="fill: #1f77b4; opacity: 0.5"/>
   </g>
   <g id="patch_132">
    <path d="M 687.767091 678.04 
L 691.448431 678.04 
L 691.448431 677.334731 
L 687.767091 677.334731 
z
" clip-path="url(#pc1617c0751)" style="fill: #1f77b4; opacity: 0.5"/>
   </g>
   <g id="patch_133">
    <path d="M 692.368767 678.04 
L 696.050107 678.04 
L 696.050107 677.335421 
L 692.368767 677.335421 
z
" clip-path="url(#pc1617c0751)" style="fill: #1f77b4; opacity: 0.5"/>
   </g>
   <g id="patch_134">
    <path d="M 696.970442 678.04 
L 700.651783 678.04 
L 700.651783 677.346888 
L 696.970442 677.346888 
z
" clip-path="url(#pc1617c0751)" style="fill: #1f77b4; opacity: 0.5"/>
   </g>
   <g id="patch_135">
    <path d="M 701.572118 678.04 
L 705.253459 678.04 
L 705.253459 677.351308 
L 701.572118 677.351308 
z
" clip-path="url(#pc1617c0751)" style="fill: #1f77b4; opacity: 0.5"/>
   </g>
   <g id="patch_136">
    <path d="M 706.173794 678.04 
L 709.855135 678.04 
L 709.855135 677.357354 
L 706.173794 677.357354 
z
" clip-path="url(#pc1617c0751)" style="fill: #1f77b4; opacity: 0.5"/>
   </g>
   <g id="patch_137">
    <path d="M 710.77547 678.04 
L 714.456811 678.04 
L 714.456811 677.358944 
L 710.77547 677.358944 
z
" clip-path="url(#pc1617c0751)" style="fill: #1f77b4; opacity: 0.5"/>
   </g>
   <g id="patch_138">
    <path d="M 715.377146 678.04 
L 719.058486 678.04 
L 719.058486 677.364023 
L 715.377146 677.364023 
z
" clip-path="url(#pc1617c0751)" style="fill: #1f77b4; opacity: 0.5"/>
   </g>
   <g id="patch_139">
    <path d="M 719.978822 678.04 
L 723.660162 678.04 
L 723.660162 677.370632 
L 719.978822 677.370632 
z
" clip-path="url(#pc1617c0751)" style="fill: #1f77b4; opacity: 0.5"/>
   </g>
   <g id="patch_140">
    <path d="M 724.580497 678.04 
L 728.261838 678.04 
L 728.261838 677.373858 
L 724.580497 677.373858 
z
" clip-path="url(#pc1617c0751)" style="fill: #1f77b4; opacity: 0.5"/>
   </g>
   <g id="patch_141">
    <path d="M 729.182173 678.04 
L 732.863514 678.04 
L 732.863514 677.381271 
L 729.182173 677.381271 
z
" clip-path="url(#pc1617c0751)" style="fill: #1f77b4; opacity: 0.5"/>
   </g>
   <g id="patch_142">
    <path d="M 733.783849 678.04 
L 737.46519 678.04 
L 737.46519 677.387276 
L 733.783849 677.387276 
z
" clip-path="url(#pc1617c0751)" style="fill: #1f77b4; opacity: 0.5"/>
   </g>
   <g id="patch_143">
    <path d="M 738.385525 678.04 
L 742.066865 678.04 
L 742.066865 677.394061 
L 738.385525 677.394061 
z
" clip-path="url(#pc1617c0751)" style="fill: #1f77b4; opacity: 0.5"/>
   </g>
   <g id="patch_144">
    <path d="M 742.987201 678.04 
L 746.668541 678.04 
L 746.668541 677.401479 
L 742.987201 677.401479 
z
" clip-path="url(#pc1617c0751)" style="fill: #1f77b4; opacity: 0.5"/>
   </g>
   <g id="patch_145">
    <path d="M 747.588876 678.04 
L 751.270217 678.04 
L 751.270217 677.405511 
L 747.588876 677.405511 
z
" clip-path="url(#pc1617c0751)" style="fill: #1f77b4; opacity: 0.5"/>
   </g>
   <g id="patch_146">
    <path d="M 752.190552 678.04 
L 755.871893 678.04 
L 755.871893 677.406479 
L 752.190552 677.406479 
z
" clip-path="url(#pc1617c0751)" style="fill: #1f77b4; opacity: 0.5"/>
   </g>
   <g id="patch_147">
    <path d="M 756.792228 678.04 
L 760.473569 678.04 
L 760.473569 677.412013 
L 756.792228 677.412013 
z
" clip-path="url(#pc1617c0751)" style="fill: #1f77b4; opacity: 0.5"/>
   </g>
   <g id="patch_148">
    <path d="M 761.393904 678.04 
L 765.075245 678.04 
L 765.075245 677.414432 
L 761.393904 677.414432 
z
" clip-path="url(#pc1617c0751)" style="fill: #1f77b4; opacity: 0.5"/>
   </g>
   <g id="patch_149">
    <path d="M 765.99558 678.04 
L 769.67692 678.04 
L 769.67692 677.422357 
L 765.99558 677.422357 
z
" clip-path="url(#pc1617c0751)" style="fill: #1f77b4; opacity: 0.5"/>
   </g>
   <g id="patch_150">
    <path d="M 770.597256 678.04 
L 774.278596 678.04 
L 774.278596 677.429652 
L 770.597256 677.429652 
z
" clip-path="url(#pc1617c0751)" style="fill: #1f77b4; opacity: 0.5"/>
   </g>
   <g id="patch_151">
    <path d="M 775.198931 678.04 
L 778.880272 678.04 
L 778.880272 677.430686 
L 775.198931 677.430686 
z
" clip-path="url(#pc1617c0751)" style="fill: #1f77b4; opacity: 0.5"/>
   </g>
   <g id="patch_152">
    <path d="M 779.800607 678.04 
L 783.481948 678.04 
L 783.481948 677.43463 
L 779.800607 677.43463 
z
" clip-path="url(#pc1617c0751)" style="fill: #1f77b4; opacity: 0.5"/>
   </g>
   <g id="patch_153">
    <path d="M 784.402283 678.04 
L 788.083624 678.04 
L 788.083624 677.438695 
L 784.402283 677.438695 
z
" clip-path="url(#pc1617c0751)" style="fill: #1f77b4; opacity: 0.5"/>
   </g>
   <g id="patch_154">
    <path d="M 789.003959 678.04 
L 792.6853 678.04 
L 792.6853 677.443517 
L 789.003959 677.443517 
z
" clip-path="url(#pc1617c0751)" style="fill: #1f77b4; opacity: 0.5"/>
   </g>
   <g id="patch_155">
    <path d="M 793.605635 678.04 
L 797.286975 678.04 
L 797.286975 677.451115 
L 793.605635 677.451115 
z
" clip-path="url(#pc1617c0751)" style="fill: #1f77b4; opacity: 0.5"/>
   </g>
   <g id="patch_156">
    <path d="M 798.207311 678.04 
L 801.888651 678.04 
L 801.888651 677.45291 
L 798.207311 677.45291 
z
" clip-path="url(#pc1617c0751)" style="fill: #1f77b4; opacity: 0.5"/>
   </g>
   <g id="patch_157">
    <path d="M 802.808986 678.04 
L 806.490327 678.04 
L 806.490327 677.453209 
L 802.808986 677.453209 
z
" clip-path="url(#pc1617c0751)" style="fill: #1f77b4; opacity: 0.5"/>
   </g>
   <g id="patch_158">
    <path d="M 807.410662 678.04 
L 811.092003 678.04 
L 811.092003 677.462053 
L 807.410662 677.462053 
z
" clip-path="url(#pc1617c0751)" style="fill: #1f77b4; opacity: 0.5"/>
   </g>
   <g id="patch_159">
    <path d="M 812.012338 678.04 
L 815.693679 678.04 
L 815.693679 677.467233 
L 812.012338 677.467233 
z
" clip-path="url(#pc1617c0751)" style="fill: #1f77b4; opacity: 0.5"/>
   </g>
   <g id="patch_160">
    <path d="M 816.614014 678.04 
L 820.295355 678.04 
L 820.295355 677.468707 
L 816.614014 677.468707 
z
" clip-path="url(#pc1617c0751)" style="fill: #1f77b4; opacity: 0.5"/>
   </g>
   <g id="patch_161">
    <path d="M 821.21569 678.04 
L 824.89703 678.04 
L 824.89703 677.472886 
L 821.21569 677.472886 
z
" clip-path="url(#pc1617c0751)" style="fill: #1f77b4; opacity: 0.5"/>
   </g>
   <g id="patch_162">
    <path d="M 825.817366 678.04 
L 829.498706 678.04 
L 829.498706 677.478614 
L 825.817366 677.478614 
z
" clip-path="url(#pc1617c0751)" style="fill: #1f77b4; opacity: 0.5"/>
   </g>
   <g id="patch_163">
    <path d="M 830.419041 678.04 
L 834.100382 678.04 
L 834.100382 677.481993 
L 830.419041 677.481993 
z
" clip-path="url(#pc1617c0751)" style="fill: #1f77b4; opacity: 0.5"/>
   </g>
   <g id="patch_164">
    <path d="M 835.020717 678.04 
L 838.702058 678.04 
L 838.702058 677.483133 
L 835.020717 677.483133 
z
" clip-path="url(#pc1617c0751)" style="fill: #1f77b4; opacity: 0.5"/>
   </g>
   <g id="patch_165">
    <path d="M 839.622393 678.04 
L 843.303734 678.04 
L 843.303734 677.487376 
L 839.622393 677.487376 
z
" clip-path="url(#pc1617c0751)" style="fill: #1f77b4; opacity: 0.5"/>
   </g>
   <g id="patch_166">
    <path d="M 844.224069 678.04 
L 847.905409 678.04 
L 847.905409 677.493161 
L 844.224069 677.493161 
z
" clip-path="url(#pc1617c0751)" style="fill: #1f77b4; opacity: 0.5"/>
   </g>
   <g id="patch_167">
    <path d="M 848.825745 678.04 
L 852.507085 678.04 
L 852.507085 677.496071 
L 848.825745 677.496071 
z
" clip-path="url(#pc1617c0751)" style="fill: #1f77b4; opacity: 0.5"/>
   </g>
   <g id="patch_168">
    <path d="M 853.42742 678.04 
L 857.108761 678.04 
L 857.108761 677.49953 
L 853.42742 677.49953 
z
" clip-path="url(#pc1617c0751)" style="fill: #1f77b4; opacity: 0.5"/>
   </g>
   <g id="patch_169">
    <path d="M 858.029096 678.04 
L 861.710437 678.04 
L 861.710437 677.500701 
L 858.029096 677.500701 
z
" clip-path="url(#pc1617c0751)" style="fill: #1f77b4; opacity: 0.5"/>
   </g>
   <g id="patch_170">
    <path d="M 862.630772 678.04 
L 866.312113 678.04 
L 866.312113 677.504988 
L 862.630772 677.504988 
z
" clip-path="url(#pc1617c0751)" style="fill: #1f77b4; opacity: 0.5"/>
   </g>
   <g id="patch_171">
    <path d="M 867.232448 678.04 
L 870.913789 678.04 
L 870.913789 677.511735 
L 867.232448 677.511735 
z
" clip-path="url(#pc1617c0751)" style="fill: #1f77b4; opacity: 0.5"/>
   </g>
   <g id="patch_172">
    <path d="M 871.834124 678.04 
L 875.515464 678.04 
L 875.515464 677.512849 
L 871.834124 677.512849 
z
" clip-path="url(#pc1617c0751)" style="fill: #1f77b4; opacity: 0.5"/>
   </g>
   <g id="patch_173">
    <path d="M 876.4358 678.04 
L 880.11714 678.04 
L 880.11714 677.519097 
L 876.4358 677.519097 
z
" clip-path="url(#pc1617c0751)" style="fill: #1f77b4; opacity: 0.5"/>
   </g>
   <g id="patch_174">
    <path d="M 881.037475 678.04 
L 884.718816 678.04 
L 884.718816 677.519562 
L 881.037475 677.519562 
z
" clip-path="url(#pc1617c0751)" style="fill: #1f77b4; opacity: 0.5"/>
   </g>
   <g id="patch_175">
    <path d="M 885.639151 678.04 
L 889.320492 678.04 
L 889.320492 677.523072 
L 885.639151 677.523072 
z
" clip-path="url(#pc1617c0751)" style="fill: #1f77b4; opacity: 0.5"/>
   </g>
   <g id="patch_176">
    <path d="M 890.240827 678.04 
L 893.922168 678.04 
L 893.922168 677.525931 
L 890.240827 677.525931 
z
" clip-path="url(#pc1617c0751)" style="fill: #1f77b4; opacity: 0.5"/>
   </g>
   <g id="patch_177">
    <path d="M 894.842503 678.04 
L 898.523844 678.04 
L 898.523844 677.532002 
L 894.842503 677.532002 
z
" clip-path="url(#pc1617c0751)" style="fill: #1f77b4; opacity: 0.5"/>
   </g>
   <g id="patch_178">
    <path d="M 899.444179 678.04 
L 903.125519 678.04 
L 903.125519 677.534778 
L 899.444179 677.534778 
z
" clip-path="url(#pc1617c0751)" style="fill: #1f77b4; opacity: 0.5"/>
   </g>
   <g id="patch_179">
    <path d="M 904.045855 678.04 
L 907.727195 678.04 
L 907.727195 677.536493 
L 904.045855 677.536493 
z
" clip-path="url(#pc1617c0751)" style="fill: #1f77b4; opacity: 0.5"/>
   </g>
   <g id="patch_180">
    <path d="M 908.64753 678.04 
L 912.328871 678.04 
L 912.328871 677.539192 
L 908.64753 677.539192 
z
" clip-path="url(#pc1617c0751)" style="fill: #1f77b4; opacity: 0.5"/>
   </g>
   <g id="patch_181">
    <path d="M 913.249206 678.04 
L 916.930547 678.04 
L 916.930547 677.54513 
L 913.249206 677.54513 
z
" clip-path="url(#pc1617c0751)" style="fill: #1f77b4; opacity: 0.5"/>
   </g>
   <g id="patch_182">
    <path d="M 917.850882 678.04 
L 921.532223 678.04 
L 921.532223 677.54758 
L 917.850882 677.54758 
z
" clip-path="url(#pc1617c0751)" style="fill: #1f77b4; opacity: 0.5"/>
   </g>
   <g id="patch_183">
    <path d="M 922.452558 678.04 
L 926.133899 678.04 
L 926.133899 677.55154 
L 922.452558 677.55154 
z
" clip-path="url(#pc1617c0751)" style="fill: #1f77b4; opacity: 0.5"/>
   </g>
   <g id="patch_184">
    <path d="M 927.054234 678.04 
L 930.735574 678.04 
L 930.735574 677.553225 
L 927.054234 677.553225 
z
" clip-path="url(#pc1617c0751)" style="fill: #1f77b4; opacity: 0.5"/>
   </g>
   <g id="patch_185">
    <path d="M 931.65591 678.04 
L 935.33725 678.04 
L 935.33725 677.555196 
L 931.65591 677.555196 
z
" clip-path="url(#pc1617c0751)" style="fill: #1f77b4; opacity: 0.5"/>
   </g>
   <g id="patch_186">
    <path d="M 936.257585 678.04 
L 939.938926 678.04 
L 939.938926 677.558863 
L 936.257585 677.558863 
z
" clip-path="url(#pc1617c0751)" style="fill: #1f77b4; opacity: 0.5"/>
   </g>
   <g id="patch_187">
    <path d="M 940.859261 678.04 
L 944.540602 678.04 
L 944.540602 677.559215 
L 940.859261 677.559215 
z
" clip-path="url(#pc1617c0751)" style="fill: #1f77b4; opacity: 0.5"/>
   </g>
   <g id="patch_188">
    <path d="M 945.460937 678.04 
L 949.142278 678.04 
L 949.142278 677.565467 
L 945.460937 677.565467 
z
" clip-path="url(#pc1617c0751)" style="fill: #1f77b4; opacity: 0.5"/>
   </g>
   <g id="patch_189">
    <path d="M 950.062613 678.04 
L 953.743954 678.04 
L 953.743954 677.567533 
L 950.062613 677.567533 
z
" clip-path="url(#pc1617c0751)" style="fill: #1f77b4; opacity: 0.5"/>
   </g>
   <g id="patch_190">
    <path d="M 954.664289 678.04 
L 958.345629 678.04 
L 958.345629 677.572423 
L 954.664289 677.572423 
z
" clip-path="url(#pc1617c0751)" style="fill: #1f77b4; opacity: 0.5"/>
   </g>
   <g id="patch_191">
    <path d="M 959.265965 678.04 
L 962.947305 678.04 
L 962.947305 677.577411 
L 959.265965 677.577411 
z
" clip-path="url(#pc1617c0751)" style="fill: #1f77b4; opacity: 0.5"/>
   </g>
   <g id="patch_192">
    <path d="M 963.86764 678.04 
L 967.548981 678.04 
L 967.548981 677.578317 
L 963.86764 677.578317 
z
" clip-path="url(#pc1617c0751)" style="fill: #1f77b4; opacity: 0.5"/>
   </g>
   <g id="patch_193">
    <path d="M 968.469316 678.04 
L 972.150657 678.04 
L 972.150657 677.581981 
L 968.469316 677.581981 
z
" clip-path="url(#pc1617c0751)" style="fill: #1f77b4; opacity: 0.5"/>
   </g>
   <g id="patch_194">
    <path d="M 973.070992 678.04 
L 976.752333 678.04 
L 976.752333 677.58919 
L 973.070992 677.58919 
z
" clip-path="url(#pc1617c0751)" style="fill: #1f77b4; opacity: 0.5"/>
   </g>
   <g id="patch_195">
    <path d="M 977.672668 678.04 
L 981.354008 678.04 
L 981.354008 677.58965 
L 977.672668 677.58965 
z
" clip-path="url(#pc1617c0751)" style="fill: #1f77b4; opacity: 0.5"/>
   </g>
   <g id="patch_196">
    <path d="M 982.274344 678.04 
L 985.955684 678.04 
L 985.955684 677.589908 
L 982.274344 677.589908 
z
" clip-path="url(#pc1617c0751)" style="fill: #1f77b4; opacity: 0.5"/>
   </g>
   <g id="patch_197">
    <path d="M 986.876019 678.04 
L 990.55736 678.04 
L 990.55736 677.591338 
L 986.876019 677.591338 
z
" clip-path="url(#pc1617c0751)" style="fill: #1f77b4; opacity: 0.5"/>
   </g>
   <g id="patch_198">
    <path d="M 991.477695 678.04 
L 995.159036 678.04 
L 995.159036 677.596102 
L 991.477695 677.596102 
z
" clip-path="url(#pc1617c0751)" style="fill: #1f77b4; opacity: 0.5"/>
   </g>
   <g id="patch_199">
    <path d="M 996.079371 678.04 
L 999.760712 678.04 
L 999.760712 677.597729 
L 996.079371 677.597729 
z
" clip-path="url(#pc1617c0751)" style="fill: #1f77b4; opacity: 0.5"/>
   </g>
   <g id="patch_200">
    <path d="M 1000.681047 678.04 
L 1004.362388 678.04 
L 1004.362388 677.602154 
L 1000.681047 677.602154 
z
" clip-path="url(#pc1617c0751)" style="fill: #1f77b4; opacity: 0.5"/>
   </g>
   <g id="patch_201">
    <path d="M 1005.282723 678.04 
L 1008.964063 678.04 
L 1008.964063 677.603841 
L 1005.282723 677.603841 
z
" clip-path="url(#pc1617c0751)" style="fill: #1f77b4; opacity: 0.5"/>
   </g>
   <g id="patch_202">
    <path d="M 1009.884399 678.04 
L 1013.565739 678.04 
L 1013.565739 677.604634 
L 1009.884399 677.604634 
z
" clip-path="url(#pc1617c0751)" style="fill: #1f77b4; opacity: 0.5"/>
   </g>
   <g id="patch_203">
    <path d="M 1014.486074 678.04 
L 1018.167415 678.04 
L 1018.167415 677.60772 
L 1014.486074 677.60772 
z
" clip-path="url(#pc1617c0751)" style="fill: #1f77b4; opacity: 0.5"/>
   </g>
   <g id="patch_204">
    <path d="M 1019.08775 678.04 
L 1022.769091 678.04 
L 1022.769091 677.611989 
L 1019.08775 677.611989 
z
" clip-path="url(#pc1617c0751)" style="fill: #1f77b4; opacity: 0.5"/>
   </g>
   <g id="matplotlib.axis_1">
    <g id="xtick_1">
     <g id="line2d_1">
      <defs>
       <path id="m18a6793e09" d="M 0 0 
L 0 3.5 
" style="stroke: #000000; stroke-width: 0.8"/>
      </defs>
      <g>
       <use xlink:href="#m18a6793e09" x="95.991579" y="678.04" style="stroke: #000000; stroke-width: 0.8"/>
      </g>
     </g>
     <g id="text_1">
      <!-- 0 -->
      <g transform="translate(92.810329 692.638438)scale(0.1 -0.1)">
       <defs>
        <path id="DejaVuSans-30" d="M 2034 4250 
Q 1547 4250 1301 3770 
Q 1056 3291 1056 2328 
Q 1056 1369 1301 889 
Q 1547 409 2034 409 
Q 2525 409 2770 889 
Q 3016 1369 3016 2328 
Q 3016 3291 2770 3770 
Q 2525 4250 2034 4250 
z
M 2034 4750 
Q 2819 4750 3233 4129 
Q 3647 3509 3647 2328 
Q 3647 1150 3233 529 
Q 2819 -91 2034 -91 
Q 1250 -91 836 529 
Q 422 1150 422 2328 
Q 422 3509 836 4129 
Q 1250 4750 2034 4750 
z
" transform="scale(0.015625)"/>
       </defs>
       <use xlink:href="#DejaVuSans-30"/>
      </g>
     </g>
    </g>
    <g id="xtick_2">
     <g id="line2d_2">
      <g>
       <use xlink:href="#m18a6793e09" x="211.033475" y="678.04" style="stroke: #000000; stroke-width: 0.8"/>
      </g>
     </g>
     <g id="text_2">
      <!-- 25 -->
      <g transform="translate(204.670975 692.638438)scale(0.1 -0.1)">
       <defs>
        <path id="DejaVuSans-32" d="M 1228 531 
L 3431 531 
L 3431 0 
L 469 0 
L 469 531 
Q 828 903 1448 1529 
Q 2069 2156 2228 2338 
Q 2531 2678 2651 2914 
Q 2772 3150 2772 3378 
Q 2772 3750 2511 3984 
Q 2250 4219 1831 4219 
Q 1534 4219 1204 4116 
Q 875 4013 500 3803 
L 500 4441 
Q 881 4594 1212 4672 
Q 1544 4750 1819 4750 
Q 2544 4750 2975 4387 
Q 3406 4025 3406 3419 
Q 3406 3131 3298 2873 
Q 3191 2616 2906 2266 
Q 2828 2175 2409 1742 
Q 1991 1309 1228 531 
z
" transform="scale(0.015625)"/>
        <path id="DejaVuSans-35" d="M 691 4666 
L 3169 4666 
L 3169 4134 
L 1269 4134 
L 1269 2991 
Q 1406 3038 1543 3061 
Q 1681 3084 1819 3084 
Q 2600 3084 3056 2656 
Q 3513 2228 3513 1497 
Q 3513 744 3044 326 
Q 2575 -91 1722 -91 
Q 1428 -91 1123 -41 
Q 819 9 494 109 
L 494 744 
Q 775 591 1075 516 
Q 1375 441 1709 441 
Q 2250 441 2565 725 
Q 2881 1009 2881 1497 
Q 2881 1984 2565 2268 
Q 2250 2553 1709 2553 
Q 1456 2553 1204 2497 
Q 953 2441 691 2322 
L 691 4666 
z
" transform="scale(0.015625)"/>
       </defs>
       <use xlink:href="#DejaVuSans-32"/>
       <use xlink:href="#DejaVuSans-35" x="63.623047"/>
      </g>
     </g>
    </g>
    <g id="xtick_3">
     <g id="line2d_3">
      <g>
       <use xlink:href="#m18a6793e09" x="326.075371" y="678.04" style="stroke: #000000; stroke-width: 0.8"/>
      </g>
     </g>
     <g id="text_3">
      <!-- 50 -->
      <g transform="translate(319.712871 692.638438)scale(0.1 -0.1)">
       <use xlink:href="#DejaVuSans-35"/>
       <use xlink:href="#DejaVuSans-30" x="63.623047"/>
      </g>
     </g>
    </g>
    <g id="xtick_4">
     <g id="line2d_4">
      <g>
       <use xlink:href="#m18a6793e09" x="441.117266" y="678.04" style="stroke: #000000; stroke-width: 0.8"/>
      </g>
     </g>
     <g id="text_4">
      <!-- 75 -->
      <g transform="translate(434.754766 692.638438)scale(0.1 -0.1)">
       <defs>
        <path id="DejaVuSans-37" d="M 525 4666 
L 3525 4666 
L 3525 4397 
L 1831 0 
L 1172 0 
L 2766 4134 
L 525 4134 
L 525 4666 
z
" transform="scale(0.015625)"/>
       </defs>
       <use xlink:href="#DejaVuSans-37"/>
       <use xlink:href="#DejaVuSans-35" x="63.623047"/>
      </g>
     </g>
    </g>
    <g id="xtick_5">
     <g id="line2d_5">
      <g>
       <use xlink:href="#m18a6793e09" x="556.159162" y="678.04" style="stroke: #000000; stroke-width: 0.8"/>
      </g>
     </g>
     <g id="text_5">
      <!-- 100 -->
      <g transform="translate(546.615412 692.638438)scale(0.1 -0.1)">
       <defs>
        <path id="DejaVuSans-31" d="M 794 531 
L 1825 531 
L 1825 4091 
L 703 3866 
L 703 4441 
L 1819 4666 
L 2450 4666 
L 2450 531 
L 3481 531 
L 3481 0 
L 794 0 
L 794 531 
z
" transform="scale(0.015625)"/>
       </defs>
       <use xlink:href="#DejaVuSans-31"/>
       <use xlink:href="#DejaVuSans-30" x="63.623047"/>
       <use xlink:href="#DejaVuSans-30" x="127.246094"/>
      </g>
     </g>
    </g>
    <g id="xtick_6">
     <g id="line2d_6">
      <g>
       <use xlink:href="#m18a6793e09" x="671.201058" y="678.04" style="stroke: #000000; stroke-width: 0.8"/>
      </g>
     </g>
     <g id="text_6">
      <!-- 125 -->
      <g transform="translate(661.657308 692.638438)scale(0.1 -0.1)">
       <use xlink:href="#DejaVuSans-31"/>
       <use xlink:href="#DejaVuSans-32" x="63.623047"/>
       <use xlink:href="#DejaVuSans-35" x="127.246094"/>
      </g>
     </g>
    </g>
    <g id="xtick_7">
     <g id="line2d_7">
      <g>
       <use xlink:href="#m18a6793e09" x="786.242953" y="678.04" style="stroke: #000000; stroke-width: 0.8"/>
      </g>
     </g>
     <g id="text_7">
      <!-- 150 -->
      <g transform="translate(776.699203 692.638438)scale(0.1 -0.1)">
       <use xlink:href="#DejaVuSans-31"/>
       <use xlink:href="#DejaVuSans-35" x="63.623047"/>
       <use xlink:href="#DejaVuSans-30" x="127.246094"/>
      </g>
     </g>
    </g>
    <g id="xtick_8">
     <g id="line2d_8">
      <g>
       <use xlink:href="#m18a6793e09" x="901.284849" y="678.04" style="stroke: #000000; stroke-width: 0.8"/>
      </g>
     </g>
     <g id="text_8">
      <!-- 175 -->
      <g transform="translate(891.741099 692.638438)scale(0.1 -0.1)">
       <use xlink:href="#DejaVuSans-31"/>
       <use xlink:href="#DejaVuSans-37" x="63.623047"/>
       <use xlink:href="#DejaVuSans-35" x="127.246094"/>
      </g>
     </g>
    </g>
    <g id="xtick_9">
     <g id="line2d_9">
      <g>
       <use xlink:href="#m18a6793e09" x="1016.326745" y="678.04" style="stroke: #000000; stroke-width: 0.8"/>
      </g>
     </g>
     <g id="text_9">
      <!-- 200 -->
      <g transform="translate(1006.782995 692.638438)scale(0.1 -0.1)">
       <use xlink:href="#DejaVuSans-32"/>
       <use xlink:href="#DejaVuSans-30" x="63.623047"/>
       <use xlink:href="#DejaVuSans-30" x="127.246094"/>
      </g>
     </g>
    </g>
    <g id="text_10">
     <!-- Principal component index -->
     <g transform="translate(492.008438 706.316563)scale(0.1 -0.1)">
      <defs>
       <path id="DejaVuSans-50" d="M 1259 4147 
L 1259 2394 
L 2053 2394 
Q 2494 2394 2734 2622 
Q 2975 2850 2975 3272 
Q 2975 3691 2734 3919 
Q 2494 4147 2053 4147 
L 1259 4147 
z
M 628 4666 
L 2053 4666 
Q 2838 4666 3239 4311 
Q 3641 3956 3641 3272 
Q 3641 2581 3239 2228 
Q 2838 1875 2053 1875 
L 1259 1875 
L 1259 0 
L 628 0 
L 628 4666 
z
" transform="scale(0.015625)"/>
       <path id="DejaVuSans-72" d="M 2631 2963 
Q 2534 3019 2420 3045 
Q 2306 3072 2169 3072 
Q 1681 3072 1420 2755 
Q 1159 2438 1159 1844 
L 1159 0 
L 581 0 
L 581 3500 
L 1159 3500 
L 1159 2956 
Q 1341 3275 1631 3429 
Q 1922 3584 2338 3584 
Q 2397 3584 2469 3576 
Q 2541 3569 2628 3553 
L 2631 2963 
z
" transform="scale(0.015625)"/>
       <path id="DejaVuSans-69" d="M 603 3500 
L 1178 3500 
L 1178 0 
L 603 0 
L 603 3500 
z
M 603 4863 
L 1178 4863 
L 1178 4134 
L 603 4134 
L 603 4863 
z
" transform="scale(0.015625)"/>
       <path id="DejaVuSans-6e" d="M 3513 2113 
L 3513 0 
L 2938 0 
L 2938 2094 
Q 2938 2591 2744 2837 
Q 2550 3084 2163 3084 
Q 1697 3084 1428 2787 
Q 1159 2491 1159 1978 
L 1159 0 
L 581 0 
L 581 3500 
L 1159 3500 
L 1159 2956 
Q 1366 3272 1645 3428 
Q 1925 3584 2291 3584 
Q 2894 3584 3203 3211 
Q 3513 2838 3513 2113 
z
" transform="scale(0.015625)"/>
       <path id="DejaVuSans-63" d="M 3122 3366 
L 3122 2828 
Q 2878 2963 2633 3030 
Q 2388 3097 2138 3097 
Q 1578 3097 1268 2742 
Q 959 2388 959 1747 
Q 959 1106 1268 751 
Q 1578 397 2138 397 
Q 2388 397 2633 464 
Q 2878 531 3122 666 
L 3122 134 
Q 2881 22 2623 -34 
Q 2366 -91 2075 -91 
Q 1284 -91 818 406 
Q 353 903 353 1747 
Q 353 2603 823 3093 
Q 1294 3584 2113 3584 
Q 2378 3584 2631 3529 
Q 2884 3475 3122 3366 
z
" transform="scale(0.015625)"/>
       <path id="DejaVuSans-70" d="M 1159 525 
L 1159 -1331 
L 581 -1331 
L 581 3500 
L 1159 3500 
L 1159 2969 
Q 1341 3281 1617 3432 
Q 1894 3584 2278 3584 
Q 2916 3584 3314 3078 
Q 3713 2572 3713 1747 
Q 3713 922 3314 415 
Q 2916 -91 2278 -91 
Q 1894 -91 1617 61 
Q 1341 213 1159 525 
z
M 3116 1747 
Q 3116 2381 2855 2742 
Q 2594 3103 2138 3103 
Q 1681 3103 1420 2742 
Q 1159 2381 1159 1747 
Q 1159 1113 1420 752 
Q 1681 391 2138 391 
Q 2594 391 2855 752 
Q 3116 1113 3116 1747 
z
" transform="scale(0.015625)"/>
       <path id="DejaVuSans-61" d="M 2194 1759 
Q 1497 1759 1228 1600 
Q 959 1441 959 1056 
Q 959 750 1161 570 
Q 1363 391 1709 391 
Q 2188 391 2477 730 
Q 2766 1069 2766 1631 
L 2766 1759 
L 2194 1759 
z
M 3341 1997 
L 3341 0 
L 2766 0 
L 2766 531 
Q 2569 213 2275 61 
Q 1981 -91 1556 -91 
Q 1019 -91 701 211 
Q 384 513 384 1019 
Q 384 1609 779 1909 
Q 1175 2209 1959 2209 
L 2766 2209 
L 2766 2266 
Q 2766 2663 2505 2880 
Q 2244 3097 1772 3097 
Q 1472 3097 1187 3025 
Q 903 2953 641 2809 
L 641 3341 
Q 956 3463 1253 3523 
Q 1550 3584 1831 3584 
Q 2591 3584 2966 3190 
Q 3341 2797 3341 1997 
z
" transform="scale(0.015625)"/>
       <path id="DejaVuSans-6c" d="M 603 4863 
L 1178 4863 
L 1178 0 
L 603 0 
L 603 4863 
z
" transform="scale(0.015625)"/>
       <path id="DejaVuSans-20" transform="scale(0.015625)"/>
       <path id="DejaVuSans-6f" d="M 1959 3097 
Q 1497 3097 1228 2736 
Q 959 2375 959 1747 
Q 959 1119 1226 758 
Q 1494 397 1959 397 
Q 2419 397 2687 759 
Q 2956 1122 2956 1747 
Q 2956 2369 2687 2733 
Q 2419 3097 1959 3097 
z
M 1959 3584 
Q 2709 3584 3137 3096 
Q 3566 2609 3566 1747 
Q 3566 888 3137 398 
Q 2709 -91 1959 -91 
Q 1206 -91 779 398 
Q 353 888 353 1747 
Q 353 2609 779 3096 
Q 1206 3584 1959 3584 
z
" transform="scale(0.015625)"/>
       <path id="DejaVuSans-6d" d="M 3328 2828 
Q 3544 3216 3844 3400 
Q 4144 3584 4550 3584 
Q 5097 3584 5394 3201 
Q 5691 2819 5691 2113 
L 5691 0 
L 5113 0 
L 5113 2094 
Q 5113 2597 4934 2840 
Q 4756 3084 4391 3084 
Q 3944 3084 3684 2787 
Q 3425 2491 3425 1978 
L 3425 0 
L 2847 0 
L 2847 2094 
Q 2847 2600 2669 2842 
Q 2491 3084 2119 3084 
Q 1678 3084 1418 2786 
Q 1159 2488 1159 1978 
L 1159 0 
L 581 0 
L 581 3500 
L 1159 3500 
L 1159 2956 
Q 1356 3278 1631 3431 
Q 1906 3584 2284 3584 
Q 2666 3584 2933 3390 
Q 3200 3197 3328 2828 
z
" transform="scale(0.015625)"/>
       <path id="DejaVuSans-65" d="M 3597 1894 
L 3597 1613 
L 953 1613 
Q 991 1019 1311 708 
Q 1631 397 2203 397 
Q 2534 397 2845 478 
Q 3156 559 3463 722 
L 3463 178 
Q 3153 47 2828 -22 
Q 2503 -91 2169 -91 
Q 1331 -91 842 396 
Q 353 884 353 1716 
Q 353 2575 817 3079 
Q 1281 3584 2069 3584 
Q 2775 3584 3186 3129 
Q 3597 2675 3597 1894 
z
M 3022 2063 
Q 3016 2534 2758 2815 
Q 2500 3097 2075 3097 
Q 1594 3097 1305 2825 
Q 1016 2553 972 2059 
L 3022 2063 
z
" transform="scale(0.015625)"/>
       <path id="DejaVuSans-74" d="M 1172 4494 
L 1172 3500 
L 2356 3500 
L 2356 3053 
L 1172 3053 
L 1172 1153 
Q 1172 725 1289 603 
Q 1406 481 1766 481 
L 2356 481 
L 2356 0 
L 1766 0 
Q 1100 0 847 248 
Q 594 497 594 1153 
L 594 3053 
L 172 3053 
L 172 3500 
L 594 3500 
L 594 4494 
L 1172 4494 
z
" transform="scale(0.015625)"/>
       <path id="DejaVuSans-64" d="M 2906 2969 
L 2906 4863 
L 3481 4863 
L 3481 0 
L 2906 0 
L 2906 525 
Q 2725 213 2448 61 
Q 2172 -91 1784 -91 
Q 1150 -91 751 415 
Q 353 922 353 1747 
Q 353 2572 751 3078 
Q 1150 3584 1784 3584 
Q 2172 3584 2448 3432 
Q 2725 3281 2906 2969 
z
M 947 1747 
Q 947 1113 1208 752 
Q 1469 391 1925 391 
Q 2381 391 2643 752 
Q 2906 1113 2906 1747 
Q 2906 2381 2643 2742 
Q 2381 3103 1925 3103 
Q 1469 3103 1208 2742 
Q 947 2381 947 1747 
z
" transform="scale(0.015625)"/>
       <path id="DejaVuSans-78" d="M 3513 3500 
L 2247 1797 
L 3578 0 
L 2900 0 
L 1881 1375 
L 863 0 
L 184 0 
L 1544 1831 
L 300 3500 
L 978 3500 
L 1906 2253 
L 2834 3500 
L 3513 3500 
z
" transform="scale(0.015625)"/>
      </defs>
      <use xlink:href="#DejaVuSans-50"/>
      <use xlink:href="#DejaVuSans-72" x="58.552734"/>
      <use xlink:href="#DejaVuSans-69" x="99.666016"/>
      <use xlink:href="#DejaVuSans-6e" x="127.449219"/>
      <use xlink:href="#DejaVuSans-63" x="190.828125"/>
      <use xlink:href="#DejaVuSans-69" x="245.808594"/>
      <use xlink:href="#DejaVuSans-70" x="273.591797"/>
      <use xlink:href="#DejaVuSans-61" x="337.068359"/>
      <use xlink:href="#DejaVuSans-6c" x="398.347656"/>
      <use xlink:href="#DejaVuSans-20" x="426.130859"/>
      <use xlink:href="#DejaVuSans-63" x="457.917969"/>
      <use xlink:href="#DejaVuSans-6f" x="512.898438"/>
      <use xlink:href="#DejaVuSans-6d" x="574.080078"/>
      <use xlink:href="#DejaVuSans-70" x="671.492188"/>
      <use xlink:href="#DejaVuSans-6f" x="734.96875"/>
      <use xlink:href="#DejaVuSans-6e" x="796.150391"/>
      <use xlink:href="#DejaVuSans-65" x="859.529297"/>
      <use xlink:href="#DejaVuSans-6e" x="921.052734"/>
      <use xlink:href="#DejaVuSans-74" x="984.431641"/>
      <use xlink:href="#DejaVuSans-20" x="1023.640625"/>
      <use xlink:href="#DejaVuSans-69" x="1055.427734"/>
      <use xlink:href="#DejaVuSans-6e" x="1083.210938"/>
      <use xlink:href="#DejaVuSans-64" x="1146.589844"/>
      <use xlink:href="#DejaVuSans-65" x="1210.066406"/>
      <use xlink:href="#DejaVuSans-78" x="1269.839844"/>
     </g>
    </g>
   </g>
   <g id="matplotlib.axis_2">
    <g id="ytick_1">
     <g id="line2d_10">
      <defs>
       <path id="m83e0a7d1e0" d="M 0 0 
L -3.5 0 
" style="stroke: #000000; stroke-width: 0.8"/>
      </defs>
      <g>
       <use xlink:href="#m83e0a7d1e0" x="47.72" y="678.04" style="stroke: #000000; stroke-width: 0.8"/>
      </g>
     </g>
     <g id="text_11">
      <!-- 0.0 -->
      <g transform="translate(24.816875 681.839219)scale(0.1 -0.1)">
       <defs>
        <path id="DejaVuSans-2e" d="M 684 794 
L 1344 794 
L 1344 0 
L 684 0 
L 684 794 
z
" transform="scale(0.015625)"/>
       </defs>
       <use xlink:href="#DejaVuSans-30"/>
       <use xlink:href="#DejaVuSans-2e" x="63.623047"/>
       <use xlink:href="#DejaVuSans-30" x="95.410156"/>
      </g>
     </g>
    </g>
    <g id="ytick_2">
     <g id="line2d_11">
      <g>
       <use xlink:href="#m83e0a7d1e0" x="47.72" y="536.87988" style="stroke: #000000; stroke-width: 0.8"/>
      </g>
     </g>
     <g id="text_12">
      <!-- 0.2 -->
      <g transform="translate(24.816875 540.679098)scale(0.1 -0.1)">
       <use xlink:href="#DejaVuSans-30"/>
       <use xlink:href="#DejaVuSans-2e" x="63.623047"/>
       <use xlink:href="#DejaVuSans-32" x="95.410156"/>
      </g>
     </g>
    </g>
    <g id="ytick_3">
     <g id="line2d_12">
      <g>
       <use xlink:href="#m83e0a7d1e0" x="47.72" y="395.719759" style="stroke: #000000; stroke-width: 0.8"/>
      </g>
     </g>
     <g id="text_13">
      <!-- 0.4 -->
      <g transform="translate(24.816875 399.518978)scale(0.1 -0.1)">
       <defs>
        <path id="DejaVuSans-34" d="M 2419 4116 
L 825 1625 
L 2419 1625 
L 2419 4116 
z
M 2253 4666 
L 3047 4666 
L 3047 1625 
L 3713 1625 
L 3713 1100 
L 3047 1100 
L 3047 0 
L 2419 0 
L 2419 1100 
L 313 1100 
L 313 1709 
L 2253 4666 
z
" transform="scale(0.015625)"/>
       </defs>
       <use xlink:href="#DejaVuSans-30"/>
       <use xlink:href="#DejaVuSans-2e" x="63.623047"/>
       <use xlink:href="#DejaVuSans-34" x="95.410156"/>
      </g>
     </g>
    </g>
    <g id="ytick_4">
     <g id="line2d_13">
      <g>
       <use xlink:href="#m83e0a7d1e0" x="47.72" y="254.559639" style="stroke: #000000; stroke-width: 0.8"/>
      </g>
     </g>
     <g id="text_14">
      <!-- 0.6 -->
      <g transform="translate(24.816875 258.358858)scale(0.1 -0.1)">
       <defs>
        <path id="DejaVuSans-36" d="M 2113 2584 
Q 1688 2584 1439 2293 
Q 1191 2003 1191 1497 
Q 1191 994 1439 701 
Q 1688 409 2113 409 
Q 2538 409 2786 701 
Q 3034 994 3034 1497 
Q 3034 2003 2786 2293 
Q 2538 2584 2113 2584 
z
M 3366 4563 
L 3366 3988 
Q 3128 4100 2886 4159 
Q 2644 4219 2406 4219 
Q 1781 4219 1451 3797 
Q 1122 3375 1075 2522 
Q 1259 2794 1537 2939 
Q 1816 3084 2150 3084 
Q 2853 3084 3261 2657 
Q 3669 2231 3669 1497 
Q 3669 778 3244 343 
Q 2819 -91 2113 -91 
Q 1303 -91 875 529 
Q 447 1150 447 2328 
Q 447 3434 972 4092 
Q 1497 4750 2381 4750 
Q 2619 4750 2861 4703 
Q 3103 4656 3366 4563 
z
" transform="scale(0.015625)"/>
       </defs>
       <use xlink:href="#DejaVuSans-30"/>
       <use xlink:href="#DejaVuSans-2e" x="63.623047"/>
       <use xlink:href="#DejaVuSans-36" x="95.410156"/>
      </g>
     </g>
    </g>
    <g id="ytick_5">
     <g id="line2d_14">
      <g>
       <use xlink:href="#m83e0a7d1e0" x="47.72" y="113.399519" style="stroke: #000000; stroke-width: 0.8"/>
      </g>
     </g>
     <g id="text_15">
      <!-- 0.8 -->
      <g transform="translate(24.816875 117.198737)scale(0.1 -0.1)">
       <defs>
        <path id="DejaVuSans-38" d="M 2034 2216 
Q 1584 2216 1326 1975 
Q 1069 1734 1069 1313 
Q 1069 891 1326 650 
Q 1584 409 2034 409 
Q 2484 409 2743 651 
Q 3003 894 3003 1313 
Q 3003 1734 2745 1975 
Q 2488 2216 2034 2216 
z
M 1403 2484 
Q 997 2584 770 2862 
Q 544 3141 544 3541 
Q 544 4100 942 4425 
Q 1341 4750 2034 4750 
Q 2731 4750 3128 4425 
Q 3525 4100 3525 3541 
Q 3525 3141 3298 2862 
Q 3072 2584 2669 2484 
Q 3125 2378 3379 2068 
Q 3634 1759 3634 1313 
Q 3634 634 3220 271 
Q 2806 -91 2034 -91 
Q 1263 -91 848 271 
Q 434 634 434 1313 
Q 434 1759 690 2068 
Q 947 2378 1403 2484 
z
M 1172 3481 
Q 1172 3119 1398 2916 
Q 1625 2713 2034 2713 
Q 2441 2713 2670 2916 
Q 2900 3119 2900 3481 
Q 2900 3844 2670 4047 
Q 2441 4250 2034 4250 
Q 1625 4250 1398 4047 
Q 1172 3844 1172 3481 
z
" transform="scale(0.015625)"/>
       </defs>
       <use xlink:href="#DejaVuSans-30"/>
       <use xlink:href="#DejaVuSans-2e" x="63.623047"/>
       <use xlink:href="#DejaVuSans-38" x="95.410156"/>
      </g>
     </g>
    </g>
    <g id="text_16">
     <!-- Explained variance ratio -->
     <g transform="translate(18.737187 405.2075)rotate(-90)scale(0.1 -0.1)">
      <defs>
       <path id="DejaVuSans-45" d="M 628 4666 
L 3578 4666 
L 3578 4134 
L 1259 4134 
L 1259 2753 
L 3481 2753 
L 3481 2222 
L 1259 2222 
L 1259 531 
L 3634 531 
L 3634 0 
L 628 0 
L 628 4666 
z
" transform="scale(0.015625)"/>
       <path id="DejaVuSans-76" d="M 191 3500 
L 800 3500 
L 1894 563 
L 2988 3500 
L 3597 3500 
L 2284 0 
L 1503 0 
L 191 3500 
z
" transform="scale(0.015625)"/>
      </defs>
      <use xlink:href="#DejaVuSans-45"/>
      <use xlink:href="#DejaVuSans-78" x="63.183594"/>
      <use xlink:href="#DejaVuSans-70" x="122.363281"/>
      <use xlink:href="#DejaVuSans-6c" x="185.839844"/>
      <use xlink:href="#DejaVuSans-61" x="213.623047"/>
      <use xlink:href="#DejaVuSans-69" x="274.902344"/>
      <use xlink:href="#DejaVuSans-6e" x="302.685547"/>
      <use xlink:href="#DejaVuSans-65" x="366.064453"/>
      <use xlink:href="#DejaVuSans-64" x="427.587891"/>
      <use xlink:href="#DejaVuSans-20" x="491.064453"/>
      <use xlink:href="#DejaVuSans-76" x="522.851562"/>
      <use xlink:href="#DejaVuSans-61" x="582.03125"/>
      <use xlink:href="#DejaVuSans-72" x="643.310547"/>
      <use xlink:href="#DejaVuSans-69" x="684.423828"/>
      <use xlink:href="#DejaVuSans-61" x="712.207031"/>
      <use xlink:href="#DejaVuSans-6e" x="773.486328"/>
      <use xlink:href="#DejaVuSans-63" x="836.865234"/>
      <use xlink:href="#DejaVuSans-65" x="891.845703"/>
      <use xlink:href="#DejaVuSans-20" x="953.369141"/>
      <use xlink:href="#DejaVuSans-72" x="985.15625"/>
      <use xlink:href="#DejaVuSans-61" x="1026.269531"/>
      <use xlink:href="#DejaVuSans-74" x="1087.548828"/>
      <use xlink:href="#DejaVuSans-69" x="1126.757812"/>
      <use xlink:href="#DejaVuSans-6f" x="1154.541016"/>
     </g>
    </g>
   </g>
   <g id="line2d_15">
    <path d="M 95.991579 550.678012 
L 98.292417 550.678012 
L 98.292417 477.416367 
L 102.894093 477.416367 
L 102.894093 436.506251 
L 107.495769 436.506251 
L 107.495769 410.806114 
L 112.097445 410.806114 
L 112.097445 387.789184 
L 116.699121 387.789184 
L 116.699121 368.310165 
L 121.300796 368.310165 
L 121.300796 352.272655 
L 125.902472 352.272655 
L 125.902472 338.542305 
L 130.504148 338.542305 
L 130.504148 326.370813 
L 135.105824 326.370813 
L 135.105824 315.639518 
L 139.7075 315.639518 
L 139.7075 306.231549 
L 144.309176 306.231549 
L 144.309176 297.308087 
L 148.910851 297.308087 
L 148.910851 290.168097 
L 153.512527 290.168097 
L 153.512527 283.646547 
L 158.114203 283.646547 
L 158.114203 277.500756 
L 162.715879 277.500756 
L 162.715879 271.51677 
L 167.317555 271.51677 
L 167.317555 265.919408 
L 171.919231 265.919408 
L 171.919231 260.926603 
L 176.520906 260.926603 
L 176.520906 256.17125 
L 181.122582 256.17125 
L 181.122582 251.58166 
L 185.724258 251.58166 
L 185.724258 247.209425 
L 190.325934 247.209425 
L 190.325934 243.058069 
L 194.92761 243.058069 
L 194.92761 239.250253 
L 199.529286 239.250253 
L 199.529286 235.508837 
L 204.130961 235.508837 
L 204.130961 231.856289 
L 208.732637 231.856289 
L 208.732637 228.284193 
L 213.334313 228.284193 
L 213.334313 224.949755 
L 217.935989 224.949755 
L 217.935989 221.680091 
L 222.537665 221.680091 
L 222.537665 218.56599 
L 227.13934 218.56599 
L 227.13934 215.530139 
L 231.741016 215.530139 
L 231.741016 212.535824 
L 236.342692 212.535824 
L 236.342692 209.57246 
L 240.944368 209.57246 
L 240.944368 206.686911 
L 245.546044 206.686911 
L 245.546044 203.989466 
L 250.14772 203.989466 
L 250.14772 201.319621 
L 254.749395 201.319621 
L 254.749395 198.810051 
L 259.351071 198.810051 
L 259.351071 196.340268 
L 263.952747 196.340268 
L 263.952747 193.994466 
L 268.554423 193.994466 
L 268.554423 191.666451 
L 273.156099 191.666451 
L 273.156099 189.371107 
L 277.757775 189.371107 
L 277.757775 187.126475 
L 282.35945 187.126475 
L 282.35945 184.989727 
L 286.961126 184.989727 
L 286.961126 182.883351 
L 291.562802 182.883351 
L 291.562802 180.786997 
L 296.164478 180.786997 
L 296.164478 178.765033 
L 300.766154 178.765033 
L 300.766154 176.766852 
L 305.36783 176.766852 
L 305.36783 174.834733 
L 309.969505 174.834733 
L 309.969505 172.950007 
L 314.571181 172.950007 
L 314.571181 171.140496 
L 319.172857 171.140496 
L 319.172857 169.342729 
L 323.774533 169.342729 
L 323.774533 167.578214 
L 328.376209 167.578214 
L 328.376209 165.833174 
L 332.977884 165.833174 
L 332.977884 164.15429 
L 337.57956 164.15429 
L 337.57956 162.485481 
L 342.181236 162.485481 
L 342.181236 160.836164 
L 346.782912 160.836164 
L 346.782912 159.22009 
L 351.384588 159.22009 
L 351.384588 157.632702 
L 355.986264 157.632702 
L 355.986264 156.070339 
L 360.587939 156.070339 
L 360.587939 154.517519 
L 365.189615 154.517519 
L 365.189615 152.980789 
L 369.791291 152.980789 
L 369.791291 151.467312 
L 374.392967 151.467312 
L 374.392967 149.972526 
L 378.994643 149.972526 
L 378.994643 148.5073 
L 383.596319 148.5073 
L 383.596319 147.051964 
L 388.197994 147.051964 
L 388.197994 145.605216 
L 392.79967 145.605216 
L 392.79967 144.203743 
L 397.401346 144.203743 
L 397.401346 142.829243 
L 402.003022 142.829243 
L 402.003022 141.473955 
L 406.604698 141.473955 
L 406.604698 140.140542 
L 411.206374 140.140542 
L 411.206374 138.820679 
L 415.808049 138.820679 
L 415.808049 137.516511 
L 420.409725 137.516511 
L 420.409725 136.233628 
L 425.011401 136.233628 
L 425.011401 134.976906 
L 429.613077 134.976906 
L 429.613077 133.72462 
L 434.214753 133.72462 
L 434.214753 132.491841 
L 438.816429 132.491841 
L 438.816429 131.276015 
L 443.418104 131.276015 
L 443.418104 130.079836 
L 448.01978 130.079836 
L 448.01978 128.905129 
L 452.621456 128.905129 
L 452.621456 127.741636 
L 457.223132 127.741636 
L 457.223132 126.587888 
L 461.824808 126.587888 
L 461.824808 125.448675 
L 466.426483 125.448675 
L 466.426483 124.312581 
L 471.028159 124.312581 
L 471.028159 123.18513 
L 475.629835 123.18513 
L 475.629835 122.070241 
L 480.231511 122.070241 
L 480.231511 120.981352 
L 484.833187 120.981352 
L 484.833187 119.912727 
L 489.434863 119.912727 
L 489.434863 118.854052 
L 494.036538 118.854052 
L 494.036538 117.799355 
L 498.638214 117.799355 
L 498.638214 116.75963 
L 503.23989 116.75963 
L 503.23989 115.730898 
L 507.841566 115.730898 
L 507.841566 114.717448 
L 512.443242 114.717448 
L 512.443242 113.718811 
L 517.044918 113.718811 
L 517.044918 112.727892 
L 521.646593 112.727892 
L 521.646593 111.747208 
L 526.248269 111.747208 
L 526.248269 110.770868 
L 530.849945 110.770868 
L 530.849945 109.805748 
L 535.451621 109.805748 
L 535.451621 108.852824 
L 540.053297 108.852824 
L 540.053297 107.914404 
L 544.654973 107.914404 
L 544.654973 106.981013 
L 549.256648 106.981013 
L 549.256648 106.062071 
L 553.858324 106.062071 
L 553.858324 105.143402 
L 558.46 105.143402 
L 558.46 104.231521 
L 563.061676 104.231521 
L 563.061676 103.336832 
L 567.663352 103.336832 
L 567.663352 102.450764 
L 572.265027 102.450764 
L 572.265027 101.568191 
L 576.866703 101.568191 
L 576.866703 100.696485 
L 581.468379 100.696485 
L 581.468379 99.833717 
L 586.070055 99.833717 
L 586.070055 98.975665 
L 590.671731 98.975665 
L 590.671731 98.123914 
L 595.273407 98.123914 
L 595.273407 97.281507 
L 599.875082 97.281507 
L 599.875082 96.453579 
L 604.476758 96.453579 
L 604.476758 95.635294 
L 609.078434 95.635294 
L 609.078434 94.820054 
L 613.68011 94.820054 
L 613.68011 94.008673 
L 618.281786 94.008673 
L 618.281786 93.205403 
L 622.883462 93.205403 
L 622.883462 92.410092 
L 627.485137 92.410092 
L 627.485137 91.624706 
L 632.086813 91.624706 
L 632.086813 90.845487 
L 636.688489 90.845487 
L 636.688489 90.069944 
L 641.290165 90.069944 
L 641.290165 89.306974 
L 645.891841 89.306974 
L 645.891841 88.544773 
L 650.493517 88.544773 
L 650.493517 87.790965 
L 655.095192 87.790965 
L 655.095192 87.044377 
L 659.696868 87.044377 
L 659.696868 86.307764 
L 664.298544 86.307764 
L 664.298544 85.572456 
L 668.90022 85.572456 
L 668.90022 84.842922 
L 673.501896 84.842922 
L 673.501896 84.118695 
L 678.103571 84.118695 
L 678.103571 83.404255 
L 682.705247 83.404255 
L 682.705247 82.691592 
L 687.306923 82.691592 
L 687.306923 81.986322 
L 691.908599 81.986322 
L 691.908599 81.281743 
L 696.510275 81.281743 
L 696.510275 80.588632 
L 701.111951 80.588632 
L 701.111951 79.899939 
L 705.713626 79.899939 
L 705.713626 79.217293 
L 710.315302 79.217293 
L 710.315302 78.536237 
L 714.916978 78.536237 
L 714.916978 77.86026 
L 719.518654 77.86026 
L 719.518654 77.190892 
L 724.12033 77.190892 
L 724.12033 76.52475 
L 728.722006 76.52475 
L 728.722006 75.866021 
L 733.323681 75.866021 
L 733.323681 75.213297 
L 737.925357 75.213297 
L 737.925357 74.567357 
L 742.527033 74.567357 
L 742.527033 73.928837 
L 747.128709 73.928837 
L 747.128709 73.294347 
L 751.730385 73.294347 
L 751.730385 72.660826 
L 756.332061 72.660826 
L 756.332061 72.032839 
L 760.933736 72.032839 
L 760.933736 71.407272 
L 765.535412 71.407272 
L 765.535412 70.789628 
L 770.137088 70.789628 
L 770.137088 70.17928 
L 774.738764 70.17928 
L 774.738764 69.569966 
L 779.34044 69.569966 
L 779.34044 68.964596 
L 783.942116 68.964596 
L 783.942116 68.363291 
L 788.543791 68.363291 
L 788.543791 67.766808 
L 793.145467 67.766808 
L 793.145467 67.177923 
L 797.747143 67.177923 
L 797.747143 66.590833 
L 802.348819 66.590833 
L 802.348819 66.004042 
L 806.950495 66.004042 
L 806.950495 65.426095 
L 811.55217 65.426095 
L 811.55217 64.853328 
L 816.153846 64.853328 
L 816.153846 64.282035 
L 820.755522 64.282035 
L 820.755522 63.714921 
L 825.357198 63.714921 
L 825.357198 63.153535 
L 829.958874 63.153535 
L 829.958874 62.595528 
L 834.56055 62.595528 
L 834.56055 62.038662 
L 839.162225 62.038662 
L 839.162225 61.486037 
L 843.763901 61.486037 
L 843.763901 60.939198 
L 848.365577 60.939198 
L 848.365577 60.395268 
L 852.967253 60.395268 
L 852.967253 59.854798 
L 857.568929 59.854798 
L 857.568929 59.315499 
L 862.170605 59.315499 
L 862.170605 58.780487 
L 866.77228 58.780487 
L 866.77228 58.252222 
L 871.373956 58.252222 
L 871.373956 57.725071 
L 875.975632 57.725071 
L 875.975632 57.204168 
L 880.577308 57.204168 
L 880.577308 56.683731 
L 885.178984 56.683731 
L 885.178984 56.166802 
L 889.78066 56.166802 
L 889.78066 55.652734 
L 894.382335 55.652734 
L 894.382335 55.144736 
L 898.984011 55.144736 
L 898.984011 54.639513 
L 903.585687 54.639513 
L 903.585687 54.136007 
L 908.187363 54.136007 
L 908.187363 53.635199 
L 912.789039 53.635199 
L 912.789039 53.140329 
L 917.390714 53.140329 
L 917.390714 52.647909 
L 921.99239 52.647909 
L 921.99239 52.159449 
L 926.594066 52.159449 
L 926.594066 51.672674 
L 931.195742 51.672674 
L 931.195742 51.18787 
L 935.797418 51.18787 
L 935.797418 50.706733 
L 940.399094 50.706733 
L 940.399094 50.225948 
L 945.000769 50.225948 
L 945.000769 49.751414 
L 949.602445 49.751414 
L 949.602445 49.278948 
L 954.204121 49.278948 
L 954.204121 48.811371 
L 958.805797 48.811371 
L 958.805797 48.348782 
L 963.407473 48.348782 
L 963.407473 47.887099 
L 968.009149 47.887099 
L 968.009149 47.42908 
L 972.610824 47.42908 
L 972.610824 46.97827 
L 977.2125 46.97827 
L 977.2125 46.52792 
L 981.814176 46.52792 
L 981.814176 46.077828 
L 986.415852 46.077828 
L 986.415852 45.629166 
L 991.017528 45.629166 
L 991.017528 45.185268 
L 995.619204 45.185268 
L 995.619204 44.742997 
L 1000.220879 44.742997 
L 1000.220879 44.30515 
L 1004.822555 44.30515 
L 1004.822555 43.868991 
L 1009.424231 43.868991 
L 1009.424231 43.433624 
L 1014.025907 43.433624 
L 1014.025907 43.001345 
L 1018.627583 43.001345 
L 1018.627583 42.573333 
L 1020.928421 42.573333 
L 1020.928421 42.573333 
" clip-path="url(#pc1617c0751)" style="fill: none; stroke: #1f77b4; stroke-width: 1.5; stroke-linecap: square"/>
   </g>
   <g id="patch_205">
    <path d="M 47.72 678.04 
L 47.72 10.8 
" style="fill: none; stroke: #000000; stroke-width: 0.8; stroke-linejoin: miter; stroke-linecap: square"/>
   </g>
   <g id="patch_206">
    <path d="M 1069.2 678.04 
L 1069.2 10.8 
" style="fill: none; stroke: #000000; stroke-width: 0.8; stroke-linejoin: miter; stroke-linecap: square"/>
   </g>
   <g id="patch_207">
    <path d="M 47.72 678.04 
L 1069.2 678.04 
" style="fill: none; stroke: #000000; stroke-width: 0.8; stroke-linejoin: miter; stroke-linecap: square"/>
   </g>
   <g id="patch_208">
    <path d="M 47.72 10.8 
L 1069.2 10.8 
" style="fill: none; stroke: #000000; stroke-width: 0.8; stroke-linejoin: miter; stroke-linecap: square"/>
   </g>
   <g id="legend_1">
    <g id="patch_209">
     <path d="M 54.72 48.15625 
L 241.973125 48.15625 
Q 243.973125 48.15625 243.973125 46.15625 
L 243.973125 17.8 
Q 243.973125 15.8 241.973125 15.8 
L 54.72 15.8 
Q 52.72 15.8 52.72 17.8 
L 52.72 46.15625 
Q 52.72 48.15625 54.72 48.15625 
z
" style="fill: #ffffff; opacity: 0.8; stroke: #cccccc; stroke-linejoin: miter"/>
    </g>
    <g id="line2d_16">
     <path d="M 56.72 23.898438 
L 61.72 23.898438 
L 61.72 23.898438 
L 71.72 23.898438 
L 71.72 23.898438 
L 76.72 23.898438 
" style="fill: none; stroke: #1f77b4; stroke-width: 1.5; stroke-linecap: square"/>
    </g>
    <g id="text_17">
     <!-- Cumulative explained variance -->
     <g transform="translate(84.72 27.398438)scale(0.1 -0.1)">
      <defs>
       <path id="DejaVuSans-43" d="M 4122 4306 
L 4122 3641 
Q 3803 3938 3442 4084 
Q 3081 4231 2675 4231 
Q 1875 4231 1450 3742 
Q 1025 3253 1025 2328 
Q 1025 1406 1450 917 
Q 1875 428 2675 428 
Q 3081 428 3442 575 
Q 3803 722 4122 1019 
L 4122 359 
Q 3791 134 3420 21 
Q 3050 -91 2638 -91 
Q 1578 -91 968 557 
Q 359 1206 359 2328 
Q 359 3453 968 4101 
Q 1578 4750 2638 4750 
Q 3056 4750 3426 4639 
Q 3797 4528 4122 4306 
z
" transform="scale(0.015625)"/>
       <path id="DejaVuSans-75" d="M 544 1381 
L 544 3500 
L 1119 3500 
L 1119 1403 
Q 1119 906 1312 657 
Q 1506 409 1894 409 
Q 2359 409 2629 706 
Q 2900 1003 2900 1516 
L 2900 3500 
L 3475 3500 
L 3475 0 
L 2900 0 
L 2900 538 
Q 2691 219 2414 64 
Q 2138 -91 1772 -91 
Q 1169 -91 856 284 
Q 544 659 544 1381 
z
M 1991 3584 
L 1991 3584 
z
" transform="scale(0.015625)"/>
      </defs>
      <use xlink:href="#DejaVuSans-43"/>
      <use xlink:href="#DejaVuSans-75" x="69.824219"/>
      <use xlink:href="#DejaVuSans-6d" x="133.203125"/>
      <use xlink:href="#DejaVuSans-75" x="230.615234"/>
      <use xlink:href="#DejaVuSans-6c" x="293.994141"/>
      <use xlink:href="#DejaVuSans-61" x="321.777344"/>
      <use xlink:href="#DejaVuSans-74" x="383.056641"/>
      <use xlink:href="#DejaVuSans-69" x="422.265625"/>
      <use xlink:href="#DejaVuSans-76" x="450.048828"/>
      <use xlink:href="#DejaVuSans-65" x="509.228516"/>
      <use xlink:href="#DejaVuSans-20" x="570.751953"/>
      <use xlink:href="#DejaVuSans-65" x="602.539062"/>
      <use xlink:href="#DejaVuSans-78" x="662.3125"/>
      <use xlink:href="#DejaVuSans-70" x="721.492188"/>
      <use xlink:href="#DejaVuSans-6c" x="784.96875"/>
      <use xlink:href="#DejaVuSans-61" x="812.751953"/>
      <use xlink:href="#DejaVuSans-69" x="874.03125"/>
      <use xlink:href="#DejaVuSans-6e" x="901.814453"/>
      <use xlink:href="#DejaVuSans-65" x="965.193359"/>
      <use xlink:href="#DejaVuSans-64" x="1026.716797"/>
      <use xlink:href="#DejaVuSans-20" x="1090.193359"/>
      <use xlink:href="#DejaVuSans-76" x="1121.980469"/>
      <use xlink:href="#DejaVuSans-61" x="1181.160156"/>
      <use xlink:href="#DejaVuSans-72" x="1242.439453"/>
      <use xlink:href="#DejaVuSans-69" x="1283.552734"/>
      <use xlink:href="#DejaVuSans-61" x="1311.335938"/>
      <use xlink:href="#DejaVuSans-6e" x="1372.615234"/>
      <use xlink:href="#DejaVuSans-63" x="1435.994141"/>
      <use xlink:href="#DejaVuSans-65" x="1490.974609"/>
     </g>
    </g>
    <g id="patch_210">
     <path d="M 56.72 42.076563 
L 76.72 42.076563 
L 76.72 35.076563 
L 56.72 35.076563 
z
" style="fill: #1f77b4; opacity: 0.5"/>
    </g>
    <g id="text_18">
     <!-- Individual explained variance -->
     <g transform="translate(84.72 42.076563)scale(0.1 -0.1)">
      <defs>
       <path id="DejaVuSans-49" d="M 628 4666 
L 1259 4666 
L 1259 0 
L 628 0 
L 628 4666 
z
" transform="scale(0.015625)"/>
      </defs>
      <use xlink:href="#DejaVuSans-49"/>
      <use xlink:href="#DejaVuSans-6e" x="29.492188"/>
      <use xlink:href="#DejaVuSans-64" x="92.871094"/>
      <use xlink:href="#DejaVuSans-69" x="156.347656"/>
      <use xlink:href="#DejaVuSans-76" x="184.130859"/>
      <use xlink:href="#DejaVuSans-69" x="243.310547"/>
      <use xlink:href="#DejaVuSans-64" x="271.09375"/>
      <use xlink:href="#DejaVuSans-75" x="334.570312"/>
      <use xlink:href="#DejaVuSans-61" x="397.949219"/>
      <use xlink:href="#DejaVuSans-6c" x="459.228516"/>
      <use xlink:href="#DejaVuSans-20" x="487.011719"/>
      <use xlink:href="#DejaVuSans-65" x="518.798828"/>
      <use xlink:href="#DejaVuSans-78" x="578.572266"/>
      <use xlink:href="#DejaVuSans-70" x="637.751953"/>
      <use xlink:href="#DejaVuSans-6c" x="701.228516"/>
      <use xlink:href="#DejaVuSans-61" x="729.011719"/>
      <use xlink:href="#DejaVuSans-69" x="790.291016"/>
      <use xlink:href="#DejaVuSans-6e" x="818.074219"/>
      <use xlink:href="#DejaVuSans-65" x="881.453125"/>
      <use xlink:href="#DejaVuSans-64" x="942.976562"/>
      <use xlink:href="#DejaVuSans-20" x="1006.453125"/>
      <use xlink:href="#DejaVuSans-76" x="1038.240234"/>
      <use xlink:href="#DejaVuSans-61" x="1097.419922"/>
      <use xlink:href="#DejaVuSans-72" x="1158.699219"/>
      <use xlink:href="#DejaVuSans-69" x="1199.8125"/>
      <use xlink:href="#DejaVuSans-61" x="1227.595703"/>
      <use xlink:href="#DejaVuSans-6e" x="1288.875"/>
      <use xlink:href="#DejaVuSans-63" x="1352.253906"/>
      <use xlink:href="#DejaVuSans-65" x="1407.234375"/>
     </g>
    </g>
   </g>
  </g>
 </g>
 <defs>
  <clipPath id="pc1617c0751">
   <rect x="47.72" y="10.8" width="1021.48" height="667.24"/>
  </clipPath>
 </defs>
</svg>
